<?xml version="1.0" encoding="UTF-8"?>
<svg version="1.1" xmlns="http://www.w3.org/2000/svg" width="225" height="225">
<path d="M0 0 C74.25 0 148.5 0 225 0 C225 74.25 225 148.5 225 225 C150.75 225 76.5 225 0 225 C0 150.75 0 76.5 0 0 Z " fill="#E33036" transform="translate(0,0)"/>
<path d="M0 0 C0.495 4.95 0.495 4.95 1 10 C0.195625 10.433125 -0.60875 10.86625 -1.4375 11.3125 C-4.27846354 12.80474002 -4.27846354 12.80474002 -5 16 C-5.6051007 21.40208665 -5.6051007 21.40208665 -3.625 26.2109375 C0.44537612 28.98509266 4.4919875 28.63773559 9.3125 28.6875 C11.16283237 28.7300512 13.0130993 28.77556436 14.86328125 28.82421875 C16.1773999 28.85588135 16.1773999 28.85588135 17.51806641 28.88818359 C20.73572747 29.03314609 23.82631059 29.46156718 27 30 C27.309375 29.38125 27.61875 28.7625 27.9375 28.125 C28.625 26.75 29.3125 25.375 30 24 C30.66 24 31.32 24 32 24 C31.53640488 19.27132978 30.9200845 15.81857204 28 12 C27.01 11.67 26.02 11.34 25 11 C25.66 8.03 26.32 5.06 27 2 C31.96916636 2.51405169 36.29026351 3.23384882 41 5 C40.95359375 5.60328125 40.9071875 6.2065625 40.859375 6.828125 C40.82328125 7.62734375 40.7871875 8.4265625 40.75 9.25 C40.70359375 10.03890625 40.6571875 10.8278125 40.609375 11.640625 C41.15878918 14.95908665 42.29671351 16.04367425 45 18 C48.04440135 18.48195275 48.04440135 18.48195275 51.25 18.25 C52.32765625 18.21390625 53.4053125 18.1778125 54.515625 18.140625 C55.33546875 18.09421875 56.1553125 18.0478125 57 18 C57.33 16.68 57.66 15.36 58 14 C63.87056262 15.41703236 65.74483705 16.72439107 69 22 C68 24 67 26 66 28 C64.07421875 28.37890625 64.07421875 28.37890625 61.6875 28.5625 C58.68223372 28.80590173 55.9088107 29.1945856 53 30 C51.70616347 33.88150959 51.28791529 37.97024791 52 42 C54.1028059 44.68726558 54.1028059 44.68726558 57 47 C58.12672366 48.20852327 59.2306638 49.43863445 60.3125 50.6875 C60.82425781 51.26886719 61.33601562 51.85023437 61.86328125 52.44921875 C63 54 63 54 63 56 C63.66 56 64.32 56 65 56 C65 56.99 65 57.98 65 59 C68.69974059 60.18391699 72.13799438 60.27585754 76 60 C78.24957229 58.91069415 78.24957229 58.91069415 80 57 C80.72752736 54.37787249 80.72752736 54.37787249 80.9375 51.5 C81.71993106 46.26532847 81.71993106 46.26532847 84.375 43.75 C87.11958038 42.96583418 88.38487279 42.93457781 91 44 C91 44.66 91 45.32 91 46 C91.66 46 92.32 46 93 46 C94.5625 48.8125 94.5625 48.8125 96 52 C95 55 95 55 92.9375 56.625 C90.39305675 59.74399495 90.35725608 61.86627221 90.55859375 65.80859375 C91.30829289 69.53055144 92.89796766 70.93197844 96 73 C98.73550543 73.67249949 101.16165931 73.85567759 104 74 C105.27832408 78.38857716 105.06690432 82.45050601 105 87 C100.545 87.495 100.545 87.495 96 88 C95.54625 87.195625 95.0925 86.39125 94.625 85.5625 C93.25274335 82.91143428 93.25274335 82.91143428 91 82 C85.31099251 81.33567187 85.31099251 81.33567187 80.625 84 C80.08875 84.66 79.5525 85.32 79 86 C78.34 86 77.68 86 77 86 C76.82556434 90.39533148 76.71909299 94.78977266 76.625 99.1875 C76.57472656 100.43337891 76.52445313 101.67925781 76.47265625 102.96289062 C76.15541176 109.24309195 76.15541176 109.24309195 78.25463867 114.95922852 C80.72347895 117.10174321 82.86503406 117.97521034 86.0625 118.5625 C89.67781108 117.87020639 91.38108416 116.54408967 94 114 C94.33 113.34 94.66 112.68 95 112 C97.97 112.99 100.94 113.98 104 115 C103.10165746 123.98342541 103.10165746 123.98342541 101 127 C98.94140625 127.57421875 98.94140625 127.57421875 96.5625 127.6875 C93.71724958 127.85155892 91.74281075 128.08572975 89 129 C89 129.66 89 130.32 89 131 C88.34 131 87.68 131 87 131 C87 134.63 87 138.26 87 142 C87.66 142 88.32 142 89 142 C89.33 143.32 89.66 144.64 90 146 C90.66 146 91.32 146 92 146 C90.3407049 149.59513939 88.42322378 152.86406334 86 156 C81.6524883 156 80.17433007 155.90980256 77 153 C76.859375 151.0078125 76.859375 151.0078125 77 148.6875 C77.17946107 145.25530702 77.04090775 143.25717519 75 140.4375 C71.97155557 137.9768889 70.06917465 136.92809467 66.109375 137.2109375 C62.38648066 138.60357575 60.38387544 141.62931059 57.95703125 144.6640625 C55.29032355 147.84707888 52.5188865 149.81829037 49 152 C48.34 152 47.68 152 47 152 C46.80372609 153.58226965 46.61834462 155.16589271 46.4375 156.75 C46.33308594 157.63171875 46.22867188 158.5134375 46.12109375 159.421875 C46.00543324 161.88432451 46.26361305 163.66538064 47 166 C47.66 166 48.32 166 49 166 C49 166.66 49 167.32 49 168 C52.63 168.33 56.26 168.66 60 169 C60 169.99 60 170.98 60 172 C60.66 172 61.32 172 62 172 C62.33 173.98 62.66 175.96 63 178 C54.81818182 183 54.81818182 183 51 183 C51 182.01 51 181.02 51 180 C50.34 180 49.68 180 49 180 C49 179.34 49 178.68 49 178 C47.2507786 177.91857073 45.50045458 177.86061459 43.75 177.8125 C42.77546875 177.77769531 41.8009375 177.74289063 40.796875 177.70703125 C37.52509445 178.04974569 36.23638671 178.59795502 34 181 C33.3049261 183.49407252 33.3049261 183.49407252 33.25 186.1875 C33.16492188 187.53908203 33.16492188 187.53908203 33.078125 188.91796875 C33.05234375 189.60503906 33.0265625 190.29210937 33 191 C29.84493858 191.93619813 27.03413498 192.1057123 23.75 192.0625 C22.85796875 192.05347656 21.9659375 192.04445312 21.046875 192.03515625 C20.03367188 192.01775391 20.03367188 192.01775391 19 192 C18.505 187.545 18.505 187.545 18 183 C19.32 182.67 20.64 182.34 22 182 C24.69561188 177.68702099 24.19227075 172.90290403 24 168 C23.34 168 22.68 168 22 168 C22 167.34 22 166.68 22 166 C18.6978772 164.8992924 16.05916721 164.79372928 12.58203125 164.68359375 C11.32841797 164.64169922 10.07480469 164.59980469 8.78320312 164.55664062 C7.47287109 164.51732422 6.16253906 164.47800781 4.8125 164.4375 C3.47720022 164.39429008 2.14191348 164.350675 0.80664062 164.30664062 C-2.46213297 164.20043498 -5.73098333 164.09839003 -9 164 C-9 164.66 -9 165.32 -9 166 C-9.66 166 -10.32 166 -11 166 C-11.05449838 167.72880982 -11.09301688 169.45812712 -11.125 171.1875 C-11.14820312 172.15042969 -11.17140625 173.11335937 -11.1953125 174.10546875 C-10.9913544 177.12812778 -10.26874632 179.26769985 -9 182 C-8.34 182 -7.68 182 -7 182 C-7.33 184.97 -7.66 187.94 -8 191 C-9.4025 190.855625 -10.805 190.71125 -12.25 190.5625 C-13.43335937 190.44068359 -13.43335937 190.44068359 -14.640625 190.31640625 C-17 190 -17 190 -21 189 C-21 185.7 -21 182.4 -21 179 C-21.66 179 -22.32 179 -23 179 C-23 178.01 -23 177.02 -23 176 C-27.31715059 174.5609498 -31.48826214 174.43141765 -36 175 C-38.63516042 176.79191458 -38.63516042 176.79191458 -40 179 C-44.10958767 177.54955729 -47.43258745 175.48889248 -51 173 C-50.3923957 169.5974159 -49.58850558 167.34583319 -47 165 C-44.71574432 164.59256161 -42.47094667 164.43155498 -40.15625 164.28125 C-37.42944202 163.92557939 -35.99925304 162.83931279 -34 161 C-33.34 161 -32.68 161 -32 161 C-31.48692117 154.86359294 -31.48692117 154.86359294 -33.625 149.25 C-35.41966864 147.5497876 -37.1965452 146.03141999 -39.125 144.5 C-41.98299555 142.01478648 -42.97814123 140.57650571 -44 137 C-44.66 137 -45.32 137 -46 137 C-46.33 135.68 -46.66 134.36 -47 133 C-52.61589298 132.70952278 -56.09825932 132.89157908 -61 136 C-62.16245685 138.3249137 -62.098432 139.85452795 -62.1875 142.4375 C-62.42578125 144.8671875 -62.42578125 144.8671875 -63 147 C-66.22429378 149.31308032 -68.04623846 150 -72 150 C-72.81567174 148.56429734 -73.62742093 147.12636566 -74.4375 145.6875 C-75.11619141 144.48673828 -75.11619141 144.48673828 -75.80859375 143.26171875 C-77 141 -77 141 -78 138 C-75.03 137.01 -75.03 137.01 -72 136 C-71.34138556 132.64171847 -70.85850931 129.42721895 -71 126 C-73.18854423 122.89138486 -73.18854423 122.89138486 -76 121 C-76.33 120.67 -76.66 120.34 -77 120 C-79.32817964 119.63239269 -81.6618385 119.29758419 -84 119 C-86.24828052 114.50343896 -86.16682272 110.92127034 -86 106 C-83.05965593 105.27781023 -80.97204969 104.76936475 -78 105 C-76.0308301 106.34396909 -74.49421134 107.88077529 -72.80859375 109.5625 C-69.74678913 111.99607257 -66.82603717 111.86575308 -63 112 C-63 111.34 -63 110.68 -63 110 C-62.02885254 109.14970215 -62.02885254 109.14970215 -61.03808594 108.28222656 C-58.34660046 105.26833027 -58.46332454 103.48284982 -58.390625 99.484375 C-58.35839844 98.23398438 -58.32617188 96.98359375 -58.29296875 95.6953125 C-58.27878906 94.39335938 -58.26460937 93.09140625 -58.25 91.75 C-58.22035156 90.43257813 -58.19070312 89.11515625 -58.16015625 87.7578125 C-58.08944612 84.50514657 -58.03675214 81.25319807 -58 78 C-62.47764184 76.15537016 -66.16140812 74.97303356 -71 76 C-72.68662458 77.64646685 -74.35511706 79.31183067 -76 81 C-79.3125 80.8125 -79.3125 80.8125 -82 80 C-82 79.34 -82 78.68 -82 78 C-82.99 78 -83.98 78 -85 78 C-84.69106068 76.3743193 -84.3777305 74.74947252 -84.0625 73.125 C-83.88847656 72.22007813 -83.71445313 71.31515625 -83.53515625 70.3828125 C-83 68 -83 68 -82 66 C-80.02482962 65.80248296 -78.0496334 65.60521515 -76.07421875 65.41015625 C-72.96647548 64.79563074 -71.20095858 63.20095858 -69 61 C-67.43569752 57.87139505 -67.64372716 55.44397075 -68 52 C-70.35832772 49.52791204 -70.35832772 49.52791204 -73 48 C-72.56633159 43.08509137 -70.61232374 40.29820863 -67 37 C-60.89830508 37.10169492 -60.89830508 37.10169492 -59 39 C-58.75572862 41.4834257 -58.61640241 43.96567293 -58.4765625 46.45703125 C-57.93106588 49.36783697 -56.84111881 50.73059955 -55 53 C-55 53.66 -55 54.32 -55 55 C-48.90059045 55.42064893 -45.86336347 55.08964656 -41 51 C-40.39027344 50.20464844 -39.78054687 49.40929687 -39.15234375 48.58984375 C-36.91364564 45.89609266 -34.6826386 44.23408399 -31.8125 42.25 C-28.15216375 39.47117237 -28.15216375 39.47117237 -26.12890625 35.484375 C-25.90281823 33.27219064 -25.82569864 31.21465262 -26 29 C-26.66 29 -27.32 29 -28 29 C-28.433125 28.34773438 -28.86625 27.69546875 -29.3125 27.0234375 C-30.82399014 24.76441442 -30.82399014 24.76441442 -33.375 24.6015625 C-34.24125 24.60929687 -35.1075 24.61703125 -36 24.625 C-38.6796875 24.46875 -38.6796875 24.46875 -41 24 C-43.39017135 20.76623876 -44 18.99667812 -44 15 C-42.75264433 14.3490741 -41.50198168 13.70448331 -40.25 13.0625 C-39.55390625 12.70285156 -38.8578125 12.34320313 -38.140625 11.97265625 C-36.09775567 11.04441818 -34.18884624 10.46833422 -32 10 C-31.71125 10.639375 -31.4225 11.27875 -31.125 11.9375 C-30.17176549 14.15206079 -30.17176549 14.15206079 -28 15 C-23.25575737 15.15554894 -19.71350793 14.94270159 -15 14 C-14.34 10.04 -13.68 6.08 -13 2 C-8.28741428 0.72201065 -4.95734952 0 0 0 Z " fill="#383434" transform="translate(103,18)"/>
<path d="M0 0 C0.7734375 -0.01224609 1.546875 -0.02449219 2.34375 -0.03710938 C7.63912518 -0.05043666 12.16101119 0.71773497 17.25 2.1875 C17.25 2.8475 17.25 3.5075 17.25 4.1875 C15.59467377 5.20616229 13.92739862 6.20560813 12.25 7.1875 C10.73483779 10.21782442 11.07971947 12.83864962 11.25 16.1875 C11.87368363 17.87072338 12.53333262 19.54171444 13.25 21.1875 C15.18627769 21.29557131 17.12427756 21.3731225 19.0625 21.4375 C20.14144531 21.48390625 21.22039062 21.5303125 22.33203125 21.578125 C25.31404209 21.46907278 25.31404209 21.46907278 27.09375 19.4375 C28.27603857 17.13683034 28.72396739 15.49989131 28.9375 12.9375 C29.040625 11.7 29.14375 10.4625 29.25 9.1875 C34.52263766 11.92927158 38.28453987 14.73844717 42.25 19.1875 C42.25 19.8475 42.25 20.5075 42.25 21.1875 C42.91 21.1875 43.57 21.1875 44.25 21.1875 C45.5390625 22.8671875 45.5390625 22.8671875 46.875 25.0625 C47.54402344 26.14144531 47.54402344 26.14144531 48.2265625 27.2421875 C49.25 29.1875 49.25 29.1875 49.25 31.1875 C45.95 30.8575 42.65 30.5275 39.25 30.1875 C39.25 30.8475 39.25 31.5075 39.25 32.1875 C38.26 32.8475 37.27 33.5075 36.25 34.1875 C35.23599119 38.60568124 34.72136106 40.9451985 36.5 45.125 C38.9781136 48.04563389 40.93292746 48.15291027 44.6875 48.5625 C48.40906151 48.56636177 48.40906151 48.56636177 50.5625 45.6875 C51.119375 44.8625 51.67625 44.0375 52.25 43.1875 C52.91 43.1875 53.57 43.1875 54.25 43.1875 C55.47596321 47.01250522 55.44121511 50.83733339 55.4375 54.8125 C55.43814453 55.52019531 55.43878906 56.22789063 55.43945312 56.95703125 C55.38354414 62.5377644 54.70425783 67.78597091 53.25 73.1875 C52.59 73.1875 51.93 73.1875 51.25 73.1875 C50.59 71.2075 49.93 69.2275 49.25 67.1875 C42.14697665 66.57820177 42.14697665 66.57820177 35.5625 68.6875 C33.72598558 72.18562271 33.59896653 75.31157981 34.25 79.1875 C34.84804275 81.40446166 34.84804275 81.40446166 36.25 83.1875 C38.65404738 84.10349427 38.65404738 84.10349427 41.375 84.4375 C42.28507812 84.58703125 43.19515625 84.7365625 44.1328125 84.890625 C44.83148438 84.98859375 45.53015625 85.0865625 46.25 85.1875 C42.78010687 92.76736363 36.32401229 98.89430634 29.25 103.1875 C28.59 103.1875 27.93 103.1875 27.25 103.1875 C27.25 103.8475 27.25 104.5075 27.25 105.1875 C25.765 105.6825 25.765 105.6825 24.25 106.1875 C24.58 102.5575 24.91 98.9275 25.25 95.1875 C24.59 95.1875 23.93 95.1875 23.25 95.1875 C21.625 93.8125 21.625 93.8125 20.25 92.1875 C20.25 91.5275 20.25 90.8675 20.25 90.1875 C18.64272673 90.41667968 17.03912584 90.67170802 15.4375 90.9375 C14.09751953 91.14632812 14.09751953 91.14632812 12.73046875 91.359375 C9.68389568 92.37649861 8.79695095 93.40806027 7.25 96.1875 C6.80913701 101.83240569 6.80913701 101.83240569 8.25 107.1875 C10.74034386 108.48410434 10.74034386 108.48410434 13.25 109.1875 C13.25 109.5175 13.25 109.8475 13.25 110.1875 C8.60884037 111.09115258 4.09114355 111.37946605 -0.625 111.375 C-1.68074219 111.3759668 -1.68074219 111.3759668 -2.7578125 111.37695312 C-7.7562047 111.32604357 -12.02467386 110.76260871 -16.75 109.1875 C-15.75 106.1875 -15.75 106.1875 -13.6875 104.5625 C-11.12202374 101.41772265 -11.30975182 99.25466807 -11.31640625 95.30859375 C-11.86319833 92.63374599 -12.51581911 91.7470267 -14.75 90.1875 C-17.15513863 89.71309131 -17.15513863 89.71309131 -19.75 89.8125 C-20.61625 89.80476563 -21.4825 89.79703125 -22.375 89.7890625 C-25.1824501 90.26004919 -26.02302988 90.97481953 -27.75 93.1875 C-29.2283226 96.14414519 -28.81032783 98.92979737 -28.75 102.1875 C-36.5359702 100.8898383 -41.949264 93.18598076 -46.3125 87.1875 C-47.46902569 85.52823507 -48.61886123 83.86417436 -49.75 82.1875 C-49.255 81.1975 -49.255 81.1975 -48.75 80.1875 C-47.5125 80.249375 -46.275 80.31125 -45 80.375 C-42.39032012 80.34728659 -40.77484029 80.19705396 -38.3125 79.25 C-35.75886134 75.87919697 -35.34154386 72.3522939 -35.75 68.1875 C-37.5 64.9375 -37.5 64.9375 -40.75 63.1875 C-43.71859808 62.59378038 -45.65168451 62.78771736 -48.75 63.1875 C-51.42431489 64.99913267 -51.70920359 66.06511077 -52.75 69.1875 C-53.41 69.1875 -54.07 69.1875 -54.75 69.1875 C-56.82451503 58.26283618 -56.41984981 47.69462953 -52.75 37.1875 C-51.31958191 39.08427358 -49.89660787 40.9714463 -48.5625 42.9375 C-45.52863515 45.02982059 -42.24277131 44.80718523 -38.75 44.1875 C-35.35743427 42.01277838 -34.85083569 40.62186912 -33.9375 36.6875 C-33.55347225 32.74588346 -33.55347225 32.74588346 -34.75 29.1875 C-39.10100024 27.11559512 -42.98623816 26.99694953 -47.75 27.1875 C-46.75 25.1875 -45.75 23.1875 -44.75 21.1875 C-44.09 21.1875 -43.43 21.1875 -42.75 21.1875 C-42.440625 20.3521875 -42.440625 20.3521875 -42.125 19.5 C-40.17316968 16.21737629 -37.80769006 14.48076754 -34.75 12.1875 C-34.09 12.1875 -33.43 12.1875 -32.75 12.1875 C-32.75 11.5275 -32.75 10.8675 -32.75 10.1875 C-27.33823529 6.1875 -27.33823529 6.1875 -24.75 6.1875 C-24.80800781 6.77917969 -24.86601563 7.37085937 -24.92578125 7.98046875 C-25.17491699 12.34390332 -25.19240363 14.53059764 -22.6875 18.25 C-19.04174571 20.65464644 -17.04438218 20.65597806 -12.75 20.1875 C-10.43963085 19.75895005 -10.43963085 19.75895005 -8.75 19.1875 C-7.55645131 15.45766034 -7.34034004 12.07926961 -7.75 8.1875 C-10.14583651 5.37418622 -10.14583651 5.37418622 -12.75 3.1875 C-12.75 2.5275 -12.75 1.8675 -12.75 1.1875 C-8.46320923 -0.01359216 -4.42499567 0.00361519 0 0 Z " fill="#F4A484" transform="translate(112.75,58.8125)"/>
<path d="M0 0 C4.48234133 2.40958233 8.58739149 5.66224372 12 9.4375 C12 10.0975 12 10.7575 12 11.4375 C12.66 11.4375 13.32 11.4375 14 11.4375 C14.6509259 12.68485567 15.29551669 13.93551832 15.9375 15.1875 C16.47697266 16.23164062 16.47697266 16.23164062 17.02734375 17.296875 C20.30966281 24.52061333 20.33990889 34.45577653 17.875 41.9375 C15.67014861 46.0532226 13.54550285 48.42005077 10 51.4375 C9.34 51.4375 8.68 51.4375 8 51.4375 C7.979375 52.015 7.95875 52.5925 7.9375 53.1875 C6.46575637 56.71968472 3.30835572 57.88752232 0 59.4375 C-0.763125 59.79972656 -1.52625 60.16195312 -2.3125 60.53515625 C-9.52440428 62.95659504 -18.86666093 62.37907605 -25.9140625 59.5234375 C-35.45276562 54.5575958 -40.39236889 47.67633449 -43.63671875 37.42578125 C-45.36568439 27.96294782 -43.97867885 19.41125125 -38.64453125 11.40234375 C-35.32593779 7.21184101 -31.82242811 4.71223024 -27 2.4375 C-26.01 2.4375 -25.02 2.4375 -24 2.4375 C-24 1.4475 -24 0.4575 -24 -0.5625 C-17.0159651 -2.89051163 -6.87168097 -2.82100587 0 0 Z " fill="#60B9E8" transform="translate(125,84.5625)"/>
<path d="M0 0 C0.7734375 -0.01224609 1.546875 -0.02449219 2.34375 -0.03710938 C7.63912518 -0.05043666 12.16101119 0.71773497 17.25 2.1875 C17.25 2.8475 17.25 3.5075 17.25 4.1875 C15.59467377 5.20616229 13.92739862 6.20560813 12.25 7.1875 C10.73483779 10.21782442 11.07971947 12.83864962 11.25 16.1875 C11.87368363 17.87072338 12.53333262 19.54171444 13.25 21.1875 C15.18627769 21.29557131 17.12427756 21.3731225 19.0625 21.4375 C20.14144531 21.48390625 21.22039062 21.5303125 22.33203125 21.578125 C25.31404209 21.46907278 25.31404209 21.46907278 27.09375 19.4375 C28.27603857 17.13683034 28.72396739 15.49989131 28.9375 12.9375 C29.040625 11.7 29.14375 10.4625 29.25 9.1875 C34.52263766 11.92927158 38.28453987 14.73844717 42.25 19.1875 C42.25 19.8475 42.25 20.5075 42.25 21.1875 C42.91 21.1875 43.57 21.1875 44.25 21.1875 C45.5390625 22.8671875 45.5390625 22.8671875 46.875 25.0625 C47.54402344 26.14144531 47.54402344 26.14144531 48.2265625 27.2421875 C49.25 29.1875 49.25 29.1875 49.25 31.1875 C45.95 30.8575 42.65 30.5275 39.25 30.1875 C39.25 30.8475 39.25 31.5075 39.25 32.1875 C38.26 32.8475 37.27 33.5075 36.25 34.1875 C35.23599119 38.60568124 34.72136106 40.9451985 36.5 45.125 C38.9781136 48.04563389 40.93292746 48.15291027 44.6875 48.5625 C48.40906151 48.56636177 48.40906151 48.56636177 50.5625 45.6875 C51.119375 44.8625 51.67625 44.0375 52.25 43.1875 C52.91 43.1875 53.57 43.1875 54.25 43.1875 C55.47596321 47.01250522 55.44121511 50.83733339 55.4375 54.8125 C55.43814453 55.52019531 55.43878906 56.22789063 55.43945312 56.95703125 C55.38354414 62.5377644 54.70425783 67.78597091 53.25 73.1875 C52.59 73.1875 51.93 73.1875 51.25 73.1875 C50.59 71.2075 49.93 69.2275 49.25 67.1875 C48.38117188 67.22230469 47.51234375 67.25710937 46.6171875 67.29296875 C45.46476562 67.32003906 44.31234375 67.34710938 43.125 67.375 C41.41957031 67.42720703 41.41957031 67.42720703 39.6796875 67.48046875 C35.8920322 67.15692188 33.51551344 66.07832161 30.25 64.1875 C30.29640625 63.22070312 30.3428125 62.25390625 30.390625 61.2578125 C30.59915925 53.7356843 30.46541245 47.96736539 27.125 41.04296875 C26.25 39.1875 26.25 39.1875 26.25 37.1875 C25.59 37.1875 24.93 37.1875 24.25 37.1875 C22.91796875 35.76171875 22.91796875 35.76171875 21.4375 33.875 C17.40304415 29.02974552 13.30533912 26.88724431 7.25 25.1875 C4.56055334 25.02607848 1.99459246 24.95178831 -0.6875 25 C-1.36490234 25.00064453 -2.04230469 25.00128906 -2.74023438 25.00195312 C-7.15672734 25.04006284 -11.39019003 25.51881749 -15.75 26.1875 C-16.74 26.1875 -17.73 26.1875 -18.75 26.1875 C-20.46711243 28.63246043 -20.46711243 28.63246043 -21.75 31.1875 C-23.07 30.5275 -24.39 29.8675 -25.75 29.1875 C-25.09 30.5075 -24.43 31.8275 -23.75 33.1875 C-26.225 33.6825 -26.225 33.6825 -28.75 34.1875 C-28.42 32.8675 -28.09 31.5475 -27.75 30.1875 C-28.41 29.8575 -29.07 29.5275 -29.75 29.1875 C-29.75 31.1675 -29.75 33.1475 -29.75 35.1875 C-30.74 35.6825 -30.74 35.6825 -31.75 36.1875 C-34.75 31.4375 -34.75 31.4375 -34.75 29.1875 C-39.25353262 27.43002386 -42.92639811 26.99455592 -47.75 27.1875 C-46.75 25.1875 -45.75 23.1875 -44.75 21.1875 C-44.09 21.1875 -43.43 21.1875 -42.75 21.1875 C-42.54375 20.630625 -42.3375 20.07375 -42.125 19.5 C-40.17316968 16.21737629 -37.80769006 14.48076754 -34.75 12.1875 C-34.09 12.1875 -33.43 12.1875 -32.75 12.1875 C-32.75 11.5275 -32.75 10.8675 -32.75 10.1875 C-27.33823529 6.1875 -27.33823529 6.1875 -24.75 6.1875 C-24.80800781 6.77917969 -24.86601563 7.37085937 -24.92578125 7.98046875 C-25.17491699 12.34390332 -25.19240363 14.53059764 -22.6875 18.25 C-19.04174571 20.65464644 -17.04438218 20.65597806 -12.75 20.1875 C-10.43963085 19.75895005 -10.43963085 19.75895005 -8.75 19.1875 C-7.55645131 15.45766034 -7.34034004 12.07926961 -7.75 8.1875 C-10.14583651 5.37418622 -10.14583651 5.37418622 -12.75 3.1875 C-12.75 2.5275 -12.75 1.8675 -12.75 1.1875 C-8.46320923 -0.01359216 -4.42499567 0.00361519 0 0 Z " fill="#F9987B" transform="translate(112.75,58.8125)"/>
<path d="M0 0 C0.7734375 -0.01224609 1.546875 -0.02449219 2.34375 -0.03710938 C7.63912518 -0.05043666 12.16101119 0.71773497 17.25 2.1875 C17.25 2.8475 17.25 3.5075 17.25 4.1875 C15.59467377 5.20616229 13.92739862 6.20560813 12.25 7.1875 C10.74065783 10.20618434 11.07489328 12.86047229 11.25 16.1875 C11.91 17.1775 12.57 18.1675 13.25 19.1875 C13.25 20.1775 13.25 21.1675 13.25 22.1875 C10.64265448 23.09004268 9.22195054 23.18185855 6.47265625 22.62890625 C2.92897392 22.14352916 0.72982312 22.58355593 -2.6875 23.5625 C-8.09366047 25.03141953 -13.12157784 26.1875 -18.75 26.1875 C-20.46711243 28.63246043 -20.46711243 28.63246043 -21.75 31.1875 C-23.07 30.5275 -24.39 29.8675 -25.75 29.1875 C-25.09 30.5075 -24.43 31.8275 -23.75 33.1875 C-26.225 33.6825 -26.225 33.6825 -28.75 34.1875 C-28.42 32.8675 -28.09 31.5475 -27.75 30.1875 C-28.41 29.8575 -29.07 29.5275 -29.75 29.1875 C-29.75 31.1675 -29.75 33.1475 -29.75 35.1875 C-30.74 35.6825 -30.74 35.6825 -31.75 36.1875 C-34.75 31.4375 -34.75 31.4375 -34.75 29.1875 C-39.25353262 27.43002386 -42.92639811 26.99455592 -47.75 27.1875 C-46.75 25.1875 -45.75 23.1875 -44.75 21.1875 C-44.09 21.1875 -43.43 21.1875 -42.75 21.1875 C-42.54375 20.630625 -42.3375 20.07375 -42.125 19.5 C-40.17316968 16.21737629 -37.80769006 14.48076754 -34.75 12.1875 C-34.09 12.1875 -33.43 12.1875 -32.75 12.1875 C-32.75 11.5275 -32.75 10.8675 -32.75 10.1875 C-27.33823529 6.1875 -27.33823529 6.1875 -24.75 6.1875 C-24.80800781 6.77917969 -24.86601563 7.37085937 -24.92578125 7.98046875 C-25.17491699 12.34390332 -25.19240363 14.53059764 -22.6875 18.25 C-19.04174571 20.65464644 -17.04438218 20.65597806 -12.75 20.1875 C-10.43963085 19.75895005 -10.43963085 19.75895005 -8.75 19.1875 C-7.55645131 15.45766034 -7.34034004 12.07926961 -7.75 8.1875 C-10.14583651 5.37418622 -10.14583651 5.37418622 -12.75 3.1875 C-12.75 2.5275 -12.75 1.8675 -12.75 1.1875 C-8.46320923 -0.01359216 -4.42499567 0.00361519 0 0 Z " fill="#F2826C" transform="translate(112.75,58.8125)"/>
<path d="M0 0 C0.66 0.33 1.32 0.66 2 1 C2 1.66 2 2.32 2 3 C2.66 3 3.32 3 4 3 C4.6509259 4.24735567 5.29551669 5.49801832 5.9375 6.75 C6.47697266 7.79414062 6.47697266 7.79414062 7.02734375 8.859375 C10.30966281 16.08311333 10.33990889 26.01827653 7.875 33.5 C5.67014861 37.6157226 3.54550285 39.98255077 0 43 C-0.66 43 -1.32 43 -2 43 C-2.020625 43.5775 -2.04125 44.155 -2.0625 44.75 C-3.53424363 48.28218472 -6.69164428 49.45002232 -10 51 C-11.1446875 51.54333984 -11.1446875 51.54333984 -12.3125 52.09765625 C-19.96759758 54.66789977 -28.95395719 53.58616724 -36.42578125 50.8515625 C-38 50 -38 50 -39 48 C-38.34 48 -37.68 48 -37 48 C-37 47.34 -37 46.68 -37 46 C-36.34 46 -35.68 46 -35 46 C-35.33 44.02 -35.66 42.04 -36 40 C-35.38125 39.773125 -34.7625 39.54625 -34.125 39.3125 C-31.38589791 37.62070165 -30.94975528 36.00755839 -30 33 C-28.68 33 -27.36 33 -26 33 C-26 31.68 -26 30.36 -26 29 C-21.25 29.875 -21.25 29.875 -19 31 C-18.33333333 32.66666667 -17.66666667 34.33333333 -17 36 C-16.34 36.33 -15.68 36.66 -15 37 C-14.71125 36.21625 -14.4225 35.4325 -14.125 34.625 C-13 32 -13 32 -11 30 C-10.01 30 -9.02 30 -8 30 C-8 30.66 -8 31.32 -8 32 C-7.34 32 -6.68 32 -6 32 C-6.020625 32.763125 -6.04125 33.52625 -6.0625 34.3125 C-6.12942841 37.10185786 -6.12942841 37.10185786 -5 40 C-4.01 40 -3.02 40 -2 40 C-2.99 37.69 -3.98 35.38 -5 33 C-3.68 33 -2.36 33 -1 33 C-1.3403125 31.3603125 -1.3403125 31.3603125 -1.6875 29.6875 C-2 26 -2 26 -0.625 24.3125 C-0.08875 23.879375 0.4475 23.44625 1 23 C1.71447643 20.89667109 1.71447643 20.89667109 2 19 C1.34 19 0.68 19 0 19 C-0.495 17.02 -0.495 17.02 -1 15 C-0.34 14.67 0.32 14.34 1 14 C0.67 10.7 0.34 7.4 0 4 C-0.66 4 -1.32 4 -2 4 C-1 1 -1 1 0 0 Z " fill="#08ABE7" transform="translate(135,93)"/>
<path d="M0 0 C1.98 0.66 3.96 1.32 6 2 C6 2.66 6 3.32 6 4 C4.948125 4.4125 3.89625 4.825 2.8125 5.25 C-4.58325302 8.50234922 -8.95845628 13.53101037 -12 21 C-12.69522597 24.48991378 -13.04505401 28.0027756 -13.24291992 31.55371094 C-13.59586689 36.61200148 -13.59586689 36.61200148 -16.0546875 38.97265625 C-16.69664063 39.31167969 -17.33859375 39.65070313 -18 40 C-18 39.34 -18 38.68 -18 38 C-18.99 38 -19.98 38 -21 38 C-20.67 38.66 -20.34 39.32 -20 40 C-21.485 39.505 -21.485 39.505 -23 39 C-28.23485846 38.42822194 -28.23485846 38.42822194 -32.9375 40.3125 C-34.17571726 42.13070391 -34.17571726 42.13070391 -35 45 C-35.66 45 -36.32 45 -37 45 C-39.07451503 34.07533618 -38.66984981 23.50712953 -35 13 C-33.56958191 14.89677358 -32.14660787 16.7839463 -30.8125 18.75 C-27.77648094 20.84380625 -24.4949753 20.61426839 -21 20 C-17.56402078 17.82990786 -16.7308391 15.53899489 -15.75 11.75 C-15.5025 10.5125 -15.255 9.275 -15 8 C-14.01 9.485 -14.01 9.485 -13 11 C-12.67 9.02 -12.34 7.04 -12 5 C-11.01 5.33 -10.02 5.66 -9 6 C-9 6.99 -9 7.98 -9 9 C-8.34 8.67 -7.68 8.34 -7 8 C-7.33 7.01 -7.66 6.02 -8 5 C-5 6 -5 6 -4 7 C-3.896875 6.401875 -3.79375 5.80375 -3.6875 5.1875 C-2.91123545 2.71756736 -1.92911079 1.67748765 0 0 Z " fill="#F38E75" transform="translate(95,83)"/>
<path d="M0 0 C0.70769531 0.04310303 1.41539063 0.08620605 2.14453125 0.13061523 C8.30919909 0.65346104 13.17400648 2.54935278 18.375 5.9375 C18.045 6.9275 17.715 7.9175 17.375 8.9375 C16.59125 8.89625 15.8075 8.855 15 8.8125 C12.21383881 8.65021266 12.21383881 8.65021266 10.375 10.9375 C9.72732207 13.50811311 9.72732207 13.50811311 9.375 15.9375 C7.4375 15.25 7.4375 15.25 5.375 13.9375 C4.625 11.3125 4.625 11.3125 4.375 8.9375 C2.065 8.2775 -0.245 7.6175 -2.625 6.9375 C-2.625 8.2575 -2.625 9.5775 -2.625 10.9375 C-3.24375 11.185 -3.8625 11.4325 -4.5 11.6875 C-6.77501528 12.76146211 -6.77501528 12.76146211 -7.625 15 C-8.625 16.9375 -8.625 16.9375 -10.75 17.6875 C-11.678125 17.81125 -11.678125 17.81125 -12.625 17.9375 C-12.295 19.9175 -11.965 21.8975 -11.625 23.9375 C-12.285 23.9375 -12.945 23.9375 -13.625 23.9375 C-13.625 24.5975 -13.625 25.2575 -13.625 25.9375 C-14.615 25.9375 -15.605 25.9375 -16.625 25.9375 C-20.625 21.59464286 -20.625 21.59464286 -20.625 18.9375 C-21.285 18.9375 -21.945 18.9375 -22.625 18.9375 C-22.36879316 17.3309324 -22.09444129 15.7272517 -21.8125 14.125 C-21.66167969 13.23167969 -21.51085937 12.33835937 -21.35546875 11.41796875 C-20.55805441 8.7101714 -19.61529895 7.83934122 -17.625 5.9375 C-17.85543864 3.28283951 -17.85543864 3.28283951 -18.625 0.9375 C-17.965 0.9375 -17.305 0.9375 -16.625 0.9375 C-16.625 1.9275 -16.625 2.9175 -16.625 3.9375 C-13.17052329 2.61845913 -13.17052329 2.61845913 -9.9296875 0.86328125 C-6.61761011 -0.4671634 -3.49326928 -0.22812354 0 0 Z " fill="#7AC2EA" transform="translate(111.625,115.0625)"/>
<path d="M0 0 C0.7734375 -0.01224609 1.546875 -0.02449219 2.34375 -0.03710938 C7.63912518 -0.05043666 12.16101119 0.71773497 17.25 2.1875 C17.25 2.8475 17.25 3.5075 17.25 4.1875 C15.59467377 5.20616229 13.92739862 6.20560813 12.25 7.1875 C10.74065783 10.20618434 11.07489328 12.86047229 11.25 16.1875 C11.91 17.1775 12.57 18.1675 13.25 19.1875 C13.25 20.1775 13.25 21.1675 13.25 22.1875 C8.44796813 23.8497418 4.34781537 22.52820132 -0.375 21.0625 C-3.50861657 20.25008089 -4.81955903 20.01532361 -7.75 21.1875 C-8.875 17.4375 -8.875 17.4375 -7.75 15.1875 C-7.24929679 11.81392666 -7.24929679 11.81392666 -7.75 8.1875 C-10.14583651 5.37418622 -10.14583651 5.37418622 -12.75 3.1875 C-12.75 2.5275 -12.75 1.8675 -12.75 1.1875 C-8.46320923 -0.01359216 -4.42499567 0.00361519 0 0 Z " fill="#F27866" transform="translate(112.75,58.8125)"/>
<path d="M0 0 C0.66 0.33 1.32 0.66 2 1 C2 1.66 2 2.32 2 3 C2.66 3 3.32 3 4 3 C4.6509259 4.24735567 5.29551669 5.49801832 5.9375 6.75 C6.47697266 7.79414062 6.47697266 7.79414062 7.02734375 8.859375 C10.30966281 16.08311333 10.33990889 26.01827653 7.875 33.5 C5.67014861 37.6157226 3.54550285 39.98255077 0 43 C-0.66 43 -1.32 43 -2 43 C-2.020625 43.5775 -2.04125 44.155 -2.0625 44.75 C-3.53424363 48.28218472 -6.69164428 49.45002232 -10 51 C-11.1446875 51.54333984 -11.1446875 51.54333984 -12.3125 52.09765625 C-19.96759758 54.66789977 -28.95395719 53.58616724 -36.42578125 50.8515625 C-38 50 -38 50 -39 48 C-38.34 48 -37.68 48 -37 48 C-37 47.34 -37 46.68 -37 46 C-35.515 45.505 -35.515 45.505 -34 45 C-34 46.32 -34 47.64 -34 49 C-30.27089934 49.0582462 -26.54191636 49.09367917 -22.8125 49.125 C-21.75740234 49.14175781 -20.70230469 49.15851563 -19.61523438 49.17578125 C-18.08286133 49.18544922 -18.08286133 49.18544922 -16.51953125 49.1953125 C-15.11344604 49.21102295 -15.11344604 49.21102295 -13.67895508 49.22705078 C-10.75006045 48.97881675 -8.62990456 48.29669504 -6 47 C-4.08995781 44.23043882 -3.32528386 41.33415953 -3 38 C-3.84979475 35.24743756 -3.84979475 35.24743756 -5 33 C-3.68 33 -2.36 33 -1 33 C-1.3403125 31.3603125 -1.3403125 31.3603125 -1.6875 29.6875 C-2 26 -2 26 -0.625 24.3125 C-0.08875 23.879375 0.4475 23.44625 1 23 C1.71447643 20.89667109 1.71447643 20.89667109 2 19 C1.34 19 0.68 19 0 19 C-0.495 17.02 -0.495 17.02 -1 15 C-0.34 14.67 0.32 14.34 1 14 C0.67 10.7 0.34 7.4 0 4 C-0.66 4 -1.32 4 -2 4 C-1 1 -1 1 0 0 Z " fill="#234B7A" transform="translate(135,93)"/>
<path d="M0 0 C0.66 0 1.32 0 2 0 C2 0.66 2 1.32 2 2 C2.66 2 3.32 2 4 2 C4.10957031 2.62648437 4.21914062 3.25296875 4.33203125 3.8984375 C4.49058594 4.71570313 4.64914063 5.53296875 4.8125 6.375 C4.96332031 7.18710938 5.11414063 7.99921875 5.26953125 8.8359375 C5.87544942 11.35820641 5.87544942 11.35820641 9 13 C11.0492094 13.45139459 11.0492094 13.45139459 13.1875 13.625 C14.445625 13.74875 15.70375 13.8725 17 14 C13.53010687 21.57986363 7.07401229 27.70680634 0 32 C-0.66 32 -1.32 32 -2 32 C-2 32.66 -2 33.32 -2 34 C-3.485 34.495 -3.485 34.495 -5 35 C-4.67 31.37 -4.34 27.74 -4 24 C-4.66 24 -5.32 24 -6 24 C-8.29648649 21.4385343 -9 20.52032428 -9 17 C-8.34 16.67 -7.68 16.34 -7 16 C-7 13.03 -7 10.06 -7 7 C-5.68 6.34 -4.36 5.68 -3 5 C-2.67 4.34 -2.34 3.68 -2 3 C-1.34 3 -0.68 3 0 3 C0 2.01 0 1.02 0 0 Z " fill="#F18E74" transform="translate(142,130)"/>
<path d="M0 0 C1.20272819 2.40545638 1.10071472 3.94996953 1.0625 6.625 C1.05347656 7.44226563 1.04445313 8.25953125 1.03515625 9.1015625 C1.02355469 9.72804688 1.01195313 10.35453125 1 11 C0.195625 11.28875 -0.60875 11.5775 -1.4375 11.875 C-4.1326468 12.73262568 -4.1326468 12.73262568 -5 15 C-4.236875 14.95875 -3.47375 14.9175 -2.6875 14.875 C0 15 0 15 3 17 C3 17.66 3 18.32 3 19 C6.465 18.505 6.465 18.505 10 18 C10 18.99 10 19.98 10 21 C8.35 20.67 6.7 20.34 5 20 C5 20.99 5 21.98 5 23 C5.66 23 6.32 23 7 23 C7 23.66 7 24.32 7 25 C5.35 25 3.7 25 2 25 C2 26.32 2 27.64 2 29 C2.66 29.33 3.32 29.66 4 30 C3.071875 30.99 3.071875 30.99 2.125 32 C-0.49874482 35.70411034 -1.10086342 38.57924515 -2 43 C-1.34 43 -0.68 43 0 43 C1.38938077 44.96147874 2.7260411 46.96166576 4 49 C-3.23963303 45.89730013 -6.01271669 39.92960887 -9 33 C-11.50327103 25.14598714 -10.62237221 16.69154101 -7.2890625 9.26953125 C-5.27234156 5.71888014 -2.81926466 2.94741305 0 0 Z " fill="#5CB3E1" transform="translate(91,91)"/>
<path d="M0 0 C3.5282387 1.90605999 6.30100416 4.1528762 8.8125 7.3125 C8.8125 10.3125 8.8125 10.3125 7.8125 12.3125 C8.4725 12.3125 9.1325 12.3125 9.8125 12.3125 C8.9375 17.0625 8.9375 17.0625 7.8125 19.3125 C7.1525 19.3125 6.4925 19.3125 5.8125 19.3125 C5.8125 18.6525 5.8125 17.9925 5.8125 17.3125 C5.1525 17.3125 4.4925 17.3125 3.8125 17.3125 C3.3175 16.3225 3.3175 16.3225 2.8125 15.3125 C1.8225 14.9825 0.8325 14.6525 -0.1875 14.3125 C-0.1875 13.3225 -0.1875 12.3325 -0.1875 11.3125 C-1.8375 11.3125 -3.4875 11.3125 -5.1875 11.3125 C-5.1875 10.6525 -5.1875 9.9925 -5.1875 9.3125 C-3.8675 8.6525 -2.5475 7.9925 -1.1875 7.3125 C-1.1875 6.6525 -1.1875 5.9925 -1.1875 5.3125 C-8.91530182 2.83377112 -16.20527998 2.56591227 -23.75 5.875 C-24.554375 6.349375 -25.35875 6.82375 -26.1875 7.3125 C-26.8475 7.3125 -27.5075 7.3125 -28.1875 7.3125 C-28.1875 7.9725 -28.1875 8.6325 -28.1875 9.3125 C-28.8475 9.3125 -29.5075 9.3125 -30.1875 9.3125 C-30.1875 10.3025 -30.1875 11.2925 -30.1875 12.3125 C-29.8575 12.6425 -29.5275 12.9725 -29.1875 13.3125 C-27.13353274 12.90320014 -27.13353274 12.90320014 -25.1875 12.3125 C-24.8575 12.9725 -24.5275 13.6325 -24.1875 14.3125 C-24.8475 14.3125 -25.5075 14.3125 -26.1875 14.3125 C-26.5175 15.9625 -26.8475 17.6125 -27.1875 19.3125 C-31.9375 18.5625 -31.9375 18.5625 -34.1875 16.3125 C-34.6359687 11.75306821 -34.78766051 9.39740554 -32.5625 5.375 C-29.74349012 2.92691247 -27.86602334 2.56330841 -24.1875 2.3125 C-24.1875 1.3225 -24.1875 0.3325 -24.1875 -0.6875 C-17.08251593 -3.05582802 -6.95127704 -2.91694874 0 0 Z " fill="#A7D8F2" transform="translate(125.1875,84.6875)"/>
<path d="M0 0 C5.27263766 2.74177158 9.03453987 5.55094717 13 10 C13 10.66 13 11.32 13 12 C13.66 12 14.32 12 15 12 C16.2890625 13.6796875 16.2890625 13.6796875 17.625 15.875 C18.29402344 16.95394531 18.29402344 16.95394531 18.9765625 18.0546875 C20 20 20 20 20 22 C16.7 21.67 13.4 21.34 10 21 C10 21.66 10 22.32 10 23 C9.01 23.66 8.02 24.32 7 25 C6.34 25.99 5.68 26.98 5 28 C4.7525 26.9275 4.505 25.855 4.25 24.75 C3.00116854 21.00350563 1.97511342 19.47926118 -1 17 C-0.34 16.01 0.32 15.02 1 14 C-0.98 14.99 -2.96 15.98 -5 17 C-4.34 17.33 -3.68 17.66 -3 18 C-3.99 18.66 -4.98 19.32 -6 20 C-6 19.34 -6 18.68 -6 18 C-7.65 17.67 -9.3 17.34 -11 17 C-11 16.67 -11 16.34 -11 16 C-12.65 15.67 -14.3 15.34 -16 15 C-15.34 14.01 -14.68 13.02 -14 12 C-11.42148362 11.8275092 -8.98320748 12.06915637 -6.41015625 12.28515625 C-3.87785567 12.2345143 -3.87785567 12.2345143 -2.2265625 10.26171875 C-0.96836354 7.94166398 -0.53002866 6.36034395 -0.3125 3.75 C-0.209375 2.5125 -0.10625 1.275 0 0 Z " fill="#EF6C5F" transform="translate(142,68)"/>
<path d="M0 0 C2.97 0.33 5.94 0.66 9 1 C9.33 2.32 9.66 3.64 10 5 C10.99 5 11.98 5 13 5 C13 6.32 13 7.64 13 9 C13.66 9 14.32 9 15 9 C15.33 7.68 15.66 6.36 16 5 C16.08636719 5.69867188 16.17273438 6.39734375 16.26171875 7.1171875 C16.68204824 9.83968863 17.13743453 12.38196209 18 15 C20.45748398 16.75568004 20.45748398 16.75568004 23 17 C23 17.33 23 17.66 23 18 C18.35884037 18.90365258 13.84114355 19.19196605 9.125 19.1875 C8.06925781 19.1884668 8.06925781 19.1884668 6.9921875 19.18945312 C1.9937953 19.13854357 -2.27467386 18.57510871 -7 17 C-6 14 -6 14 -4.0625 12.4375 C-0.96056801 8.77158038 -0.67603251 4.66106624 0 0 Z " fill="#F28D74" transform="translate(103,151)"/>
<path d="M0 0 C2.32158065 -0.34659295 2.32158065 -0.34659295 4 -1 C4 -0.34 4 0.32 4 1 C6.97 1.33 9.94 1.66 13 2 C12.34 2.66 11.68 3.32 11 4 C11.99 4.66 12.98 5.32 14 6 C14.33 4.68 14.66 3.36 15 2 C16.65 1.67 18.3 1.34 20 1 C19.67 1.99 19.34 2.98 19 4 C19.804375 4.598125 20.60875 5.19625 21.4375 5.8125 C25.36659082 9.7194551 24.79372873 14.7720903 25 20 C25.17183419 21.73079364 25.35785293 23.46027877 25.5625 25.1875 C25.706875 26.445625 25.85125 27.70375 26 29 C24.68 29 23.36 29 22 29 C22 32.3 22 35.6 22 39 C21.67 39 21.34 39 21 39 C20.89042969 37.91460937 20.78085938 36.82921875 20.66796875 35.7109375 C20.50841392 34.26555848 20.34822389 32.82024949 20.1875 31.375 C20.11724609 30.66214844 20.04699219 29.94929688 19.97460938 29.21484375 C19.44036204 24.556207 18.28333845 21.16631071 16 17 C16 16.34 16 15.68 16 15 C15.34 15 14.68 15 14 15 C12.66796875 13.57421875 12.66796875 13.57421875 11.1875 11.6875 C5.73913241 5.14418202 -0.5460402 3.14382706 -8.875 2.375 C-10.58280131 2.24293003 -12.29100181 2.11555504 -14 2 C-13.67 1.34 -13.34 0.68 -13 0 C-8.38717572 -1.20812064 -4.66071426 -0.69047619 0 0 Z " fill="#F2907A" transform="translate(123,81)"/>
<path d="M0 0 C0.33 0.99 0.66 1.98 1 3 C1.66 3.33 2.32 3.66 3 4 C2.67 4.99 2.34 5.98 2 7 C2.99 7.33 3.98 7.66 5 8 C5.99 9.485 5.99 9.485 7 11 C7.66 11.33 8.32 11.66 9 12 C8.67 16.29 8.34 20.58 8 25 C-1.74252218 22.56436946 -7.65913165 12.91670949 -13 5 C-12.67 4.34 -12.34 3.68 -12 3 C-10.7625 3.061875 -9.525 3.12375 -8.25 3.1875 C-5.21788698 3.20362826 -4.17751704 3.10651023 -1.5 1.5 C-1.005 1.005 -0.51 0.51 0 0 Z " fill="#EF7D6A" transform="translate(76,136)"/>
<path d="M0 0 C-0.02320312 0.60328125 -0.04640625 1.2065625 -0.0703125 1.828125 C-0.08835937 2.62734375 -0.10640625 3.4265625 -0.125 4.25 C-0.14820312 5.03890625 -0.17140625 5.8278125 -0.1953125 6.640625 C0.0171622 9.20731941 0.71345895 10.7916067 2 13 C0 15 0 15 -3.5 15.375 C-4.655 15.58125 -5.81 15.7875 -7 16 C-8.3762794 17.91764174 -8.3762794 17.91764174 -9 20 C-9.66 20.33 -10.32 20.66 -11 21 C-10.67 21.66 -10.34 22.32 -10 23 C-10.845625 22.67 -11.69125 22.34 -12.5625 22 C-16.20989216 20.93894046 -19.22274664 20.84890987 -23 21 C-22 19 -21 17 -20 15 C-19.34 15 -18.68 15 -18 15 C-17.79375 14.443125 -17.5875 13.88625 -17.375 13.3125 C-15.42316968 10.02987629 -13.05769006 8.29326754 -10 6 C-9.34 6 -8.68 6 -8 6 C-8 5.34 -8 4.68 -8 4 C-2.58823529 0 -2.58823529 0 0 0 Z " fill="#E45B54" transform="translate(88,65)"/>
<path d="M0 0 C0.66 0 1.32 0 2 0 C3.22596321 3.82500522 3.19121511 7.64983339 3.1875 11.625 C3.1884668 12.68654297 3.1884668 12.68654297 3.18945312 13.76953125 C3.13354414 19.3502644 2.45425783 24.59847091 1 30 C0.34 30 -0.32 30 -1 30 C-1.66 28.02 -2.32 26.04 -3 24 C-6.3 23.67 -9.6 23.34 -13 23 C-13 22.67 -13 22.34 -13 22 C-11.35 22 -9.7 22 -8 22 C-7.67 21.01 -7.34 20.02 -7 19 C-6.34 18.67 -5.68 18.34 -5 18 C-5 15.36 -5 12.72 -5 10 C-6.65 10 -8.3 10 -10 10 C-9.67 9.01 -9.34 8.02 -9 7 C-10.32 7 -11.64 7 -13 7 C-13 6.34 -13 5.68 -13 5 C-12.39671875 5.05800781 -11.7934375 5.11601563 -11.171875 5.17578125 C-8.69679296 5.31550362 -6.45544644 5.36047141 -4 5 C-1.52791204 2.64167228 -1.52791204 2.64167228 0 0 Z " fill="#ED6D5E" transform="translate(165,102)"/>
<path d="M0 0 C0.70189453 0.93779297 0.70189453 0.93779297 1.41796875 1.89453125 C4.43692071 6.01254875 4.43692071 6.01254875 9.1875 7.6875 C10.115625 7.790625 11.04375 7.89375 12 8 C11.01 8.66 10.02 9.32 9 10 C9.99 10.66 10.98 11.32 12 12 C10.35 12 8.7 12 7 12 C7 12.66 7 13.32 7 14 C7.66 14.33 8.32 14.66 9 15 C8.35160156 15.23847656 7.70320313 15.47695312 7.03515625 15.72265625 C4.79603439 16.7987948 4.79603439 16.7987948 4.49609375 19.05859375 C4.47675781 19.84363281 4.45742187 20.62867187 4.4375 21.4375 C4.31947868 25.65155525 4.31947868 25.65155525 2.53515625 27.59765625 C2.02855469 28.06042969 1.52195312 28.52320312 1 29 C0.67 29.99 0.34 30.98 0 32 C-0.66 32 -1.32 32 -2 32 C-4.07451503 21.07533618 -3.66984981 10.50712953 0 0 Z " fill="#E56057" transform="translate(60,96)"/>
<path d="M0 0 C0.495 1.485 0.495 1.485 1 3 C0.05125 3.103125 -0.8975 3.20625 -1.875 3.3125 C-5.29107501 3.68539295 -5.29107501 3.68539295 -7 7 C-7.99 7 -8.98 7 -10 7 C-10 6.34 -10 5.68 -10 5 C-11.97536745 5.34786708 -11.97536745 5.34786708 -14 6 C-14.33 6.66 -14.66 7.32 -15 8 C-17.38564077 7.42415568 -19.66682784 6.77772405 -22 6 C-24.63813861 6.73854232 -24.63813861 6.73854232 -27 8 C-27.33 8.66 -27.66 9.32 -28 10 C-28.66 9.67 -29.32 9.34 -30 9 C-29.67 8.34 -29.34 7.68 -29 7 C-29.99 6.67 -30.98 6.34 -32 6 C-31.34 6 -30.68 6 -30 6 C-29.67 5.01 -29.34 4.02 -29 3 C-28.34 3.33 -27.68 3.66 -27 4 C-27 3.34 -27 2.68 -27 2 C-18.25001358 -2.77473878 -9.37472002 -5.11348364 0 0 Z " fill="#2986B9" transform="translate(124,90)"/>
<path d="M0 0 C0.99 0.66 1.98 1.32 3 2 C3.66 2 4.32 2 5 2 C5 1.67 5 1.34 5 1 C7.43847451 1.11397544 9.87513174 1.24070974 12.3125 1.375 C13.34793945 1.42140625 13.34793945 1.42140625 14.40429688 1.46875 C18.06990789 1.68124919 19.87900792 1.91933861 23 4 C22.01 6.97 21.02 9.94 20 13 C18.68 12.34 17.36 11.68 16 11 C15.25 8.375 15.25 8.375 15 6 C12.69 5.34 10.38 4.68 8 4 C8 5.32 8 6.64 8 8 C7.38125 8.2475 6.7625 8.495 6.125 8.75 C3.84998472 9.82396211 3.84998472 9.82396211 3 12.0625 C2 14 2 14 -0.125 14.75 C-1.053125 14.87375 -1.053125 14.87375 -2 15 C-2 16.65 -2 18.3 -2 20 C-4.68478605 18.01559292 -5.03631971 16.84354588 -5.8125 13.5 C-6 10 -6 10 -4 7 C-3.01 6.67 -2.02 6.34 -1 6 C-1 5.01 -1 4.02 -1 3 C-0.67 2.01 -0.34 1.02 0 0 Z " fill="#A3D8F5" transform="translate(101,118)"/>
<path d="M0 0 C-0.66 0.66 -1.32 1.32 -2 2 C-1.67 2.66 -1.34 3.32 -1 4 C-1.66 4 -2.32 4 -3 4 C-3 5.32 -3 6.64 -3 8 C-2.34 8.33 -1.68 8.66 -1 9 C-2.65 9.33 -4.3 9.66 -6 10 C-6.33 10.99 -6.66 11.98 -7 13 C-12.22222222 16 -12.22222222 16 -15 16 C-15.33 16.66 -15.66 17.32 -16 18 C-16.66 17.67 -17.32 17.34 -18 17 C-18 16.01 -18 15.02 -18 14 C-17.01 14 -16.02 14 -15 14 C-15 13.34 -15 12.68 -15 12 C-15.66 12 -16.32 12 -17 12 C-17 11.01 -17 10.02 -17 9 C-15.35 9.33 -13.7 9.66 -12 10 C-12 9.01 -12 8.02 -12 7 C-13.11375 7.20625 -14.2275 7.4125 -15.375 7.625 C-16.57125 7.74875 -17.7675 7.8725 -19 8 C-21 6 -21 6 -22 4 C-23.65 4 -25.3 4 -27 4 C-26.67 3.01 -26.34 2.02 -26 1 C-23.3125 0.1875 -23.3125 0.1875 -20 0 C-17.25 2.375 -17.25 2.375 -15 5 C-14.34 5.33 -13.68 5.66 -13 6 C-13 4.68 -13 3.36 -13 2 C-11.39935157 1.46845258 -9.79431126 0.95011647 -8.1875 0.4375 C-7.29417969 0.14746094 -6.40085937 -0.14257812 -5.48046875 -0.44140625 C-3 -1 -3 -1 0 0 Z " fill="#60BAEA" transform="translate(113,102)"/>
<path d="M0 0 C2 0 2 0 3.5625 1.3125 C5 3 5 3 6 6 C4.84589094 10.74467058 1.75830099 14.02808264 -2 17 C-2.66 17 -3.32 17 -4 17 C-4.020625 17.5775 -4.04125 18.155 -4.0625 18.75 C-5.53424363 22.28218472 -8.69164428 23.45002232 -12 25 C-12.763125 25.36222656 -13.52625 25.72445312 -14.3125 26.09765625 C-21.96759758 28.66789977 -30.95395719 27.58616724 -38.42578125 24.8515625 C-40 24 -40 24 -41 22 C-40.34 22 -39.68 22 -39 22 C-39 21.34 -39 20.68 -39 20 C-38.01 19.67 -37.02 19.34 -36 19 C-36 20.32 -36 21.64 -36 23 C-32.27089934 23.0582462 -28.54191636 23.09367917 -24.8125 23.125 C-23.75740234 23.14175781 -22.70230469 23.15851563 -21.61523438 23.17578125 C-20.08286133 23.18544922 -20.08286133 23.18544922 -18.51953125 23.1953125 C-17.11344604 23.21102295 -17.11344604 23.21102295 -15.67895508 23.22705078 C-12.75262407 22.97903403 -10.63071496 22.28789129 -8 21 C-6.1135224 18.45325524 -5.98283022 16.7639155 -5.75 13.5625 C-4.73416405 8.73727922 -2.91102864 7.82925476 1 5 C1 4.67 1 4.34 1 4 C0.34 4 -0.32 4 -1 4 C-0.67 2.68 -0.34 1.36 0 0 Z " fill="#325376" transform="translate(137,119)"/>
<path d="M0 0 C0 0.99 0 1.98 0 3 C-1.98 3.33 -3.96 3.66 -6 4 C-6 6.31 -6 8.62 -6 11 C-6.99 11 -7.98 11 -9 11 C-8.67 10.67 -8.34 10.34 -8 10 C-8.66 9.67 -9.32 9.34 -10 9 C-10.33 9.99 -10.66 10.98 -11 12 C-11.99 12.495 -11.99 12.495 -13 13 C-13.33 13.99 -13.66 14.98 -14 16 C-14.66 16 -15.32 16 -16 16 C-16 16.66 -16 17.32 -16 18 C-18.90600261 19.25664978 -20.79604584 20 -24 20 C-23.67 21.32 -23.34 22.64 -23 24 C-23.99 24 -24.98 24 -26 24 C-25.38228562 16.4638846 -25.38228562 16.4638846 -23.6640625 14.37890625 C-22.05830874 13.04831687 -20.43284943 11.8894925 -18.6875 10.75 C-15.29685144 8.39876802 -12.87576535 5.70464062 -10.359375 2.453125 C-7.48623682 -0.61816064 -3.90966551 -0.08688146 0 0 Z " fill="#EA4142" transform="translate(174,156)"/>
<path d="M0 0 C0 0.66 0 1.32 0 2 C0.66 2 1.32 2 2 2 C1.979375 2.763125 1.95875 3.52625 1.9375 4.3125 C1.87057159 7.10185786 1.87057159 7.10185786 3 10 C3.66 10 4.32 10 5 10 C4.45502261 13.81484173 2.84708767 15.48786382 0 18 C-3.0581389 20.03875926 -3.71060009 20.25490139 -7.16015625 20.265625 C-7.95357422 20.26820313 -8.74699219 20.27078125 -9.56445312 20.2734375 C-10.38880859 20.26570313 -11.21316406 20.25796875 -12.0625 20.25 C-12.89072266 20.25773437 -13.71894531 20.26546875 -14.57226562 20.2734375 C-15.36439453 20.27085937 -16.15652344 20.26828125 -16.97265625 20.265625 C-17.69718994 20.26336914 -18.42172363 20.26111328 -19.16821289 20.25878906 C-21 20 -21 20 -23 18 C-22.67 17.34 -22.34 16.68 -22 16 C-20.68 16 -19.36 16 -18 16 C-18 16.99 -18 17.98 -18 19 C-14.37 19 -10.74 19 -7 19 C-6.67 17.68 -6.34 16.36 -6 15 C-5.01 14.67 -4.02 14.34 -3 14 C-3.33 13.01 -3.66 12.02 -4 11 C-4.34342449 9.66923011 -4.67619874 8.33568021 -5 7 C-5.2475 6.319375 -5.495 5.63875 -5.75 4.9375 C-6 3 -6 3 -4.75 1.25 C-3 0 -3 0 0 0 Z " fill="#0874A8" transform="translate(127,123)"/>
<path d="M0 0 C0.33 0.66 0.66 1.32 1 2 C1.66 2 2.32 2 3 2 C3.4021875 3.2065625 3.4021875 3.2065625 3.8125 4.4375 C4.204375 5.283125 4.59625 6.12875 5 7 C5.99 7.33 6.98 7.66 8 8 C10.5 10.3125 10.5 10.3125 13 13 C13.61875 13.5775 14.2375 14.155 14.875 14.75 C16.7098232 18.4196464 15.69793216 22.06467168 15 26 C14.34 26 13.68 26 13 26 C13 25.01 13 24.02 13 23 C11.68 23 10.36 23 9 23 C8.67 20.36 8.34 17.72 8 15 C7.13375 14.87625 7.13375 14.87625 6.25 14.75 C3.06928843 13.68976281 1.91232342 12.80018787 0 10 C-0.33752295 6.64059186 -0.23113748 3.36433445 0 0 Z " fill="#E73F41" transform="translate(56,153)"/>
<path d="M0 0 C1.20272819 2.40545638 1.10071472 3.94996953 1.0625 6.625 C1.05347656 7.44226563 1.04445313 8.25953125 1.03515625 9.1015625 C1.02355469 9.72804688 1.01195313 10.35453125 1 11 C0.195625 11.28875 -0.60875 11.5775 -1.4375 11.875 C-4.1326468 12.73262568 -4.1326468 12.73262568 -5 15 C-4.236875 14.95875 -3.47375 14.9175 -2.6875 14.875 C0 15 0 15 3 17 C3 17.66 3 18.32 3 19 C6.465 18.505 6.465 18.505 10 18 C10 18.99 10 19.98 10 21 C8.35 20.67 6.7 20.34 5 20 C5 20.99 5 21.98 5 23 C5.66 23 6.32 23 7 23 C7 23.66 7 24.32 7 25 C4.33333333 24.33333333 1.66666667 23.66666667 -1 23 C-1.33 21.35 -1.66 19.7 -2 18 C-3.65 17.67 -5.3 17.34 -7 17 C-7.99 18.32 -8.98 19.64 -10 21 C-9.71121232 13.20273264 -6.69349981 6.90625902 -1.3046875 1.20703125 C-0.87414062 0.80871094 -0.44359375 0.41039063 0 0 Z " fill="#2F5881" transform="translate(91,91)"/>
<path d="M0 0 C2.35171131 0.59861742 4.6859378 1.26924352 7 2 C7.33 2.66 7.66 3.32 8 4 C8.66 3.34 9.32 2.68 10 2 C10.99 3.98 11.98 5.96 13 8 C13.66 6.68 14.32 5.36 15 4 C15.33591896 6.27045229 15.66865065 8.54137633 16 10.8125 C16.185625 12.07707031 16.37125 13.34164062 16.5625 14.64453125 C17 18 17 18 17 21 C15.68 21 14.36 21 13 21 C13 24.3 13 27.6 13 31 C12.67 31 12.34 31 12 31 C11.89042969 29.91460937 11.78085938 28.82921875 11.66796875 27.7109375 C11.50841392 26.26555848 11.34822389 24.82024949 11.1875 23.375 C11.11724609 22.66214844 11.04699219 21.94929688 10.97460938 21.21484375 C10.44036204 16.556207 9.28333845 13.16631071 7 9 C7 8.34 7 7.68 7 7 C6.34 7 5.68 7 5 7 C0 1.4047619 0 1.4047619 0 0 Z " fill="#EB957B" transform="translate(132,89)"/>
<path d="M0 0 C1.98 0.66 3.96 1.32 6 2 C6 2.66 6 3.32 6 4 C4.948125 4.4125 3.89625 4.825 2.8125 5.25 C-4.87600102 8.6310878 -8.02384023 13.84017966 -12 21 C-12.33 19.68 -12.66 18.36 -13 17 C-14.32 17.33 -15.64 17.66 -17 18 C-16.34 14.7 -15.68 11.4 -15 8 C-14.01 9.485 -14.01 9.485 -13 11 C-12.67 9.02 -12.34 7.04 -12 5 C-11.01 5.33 -10.02 5.66 -9 6 C-9 6.99 -9 7.98 -9 9 C-8.34 8.67 -7.68 8.34 -7 8 C-7.33 7.01 -7.66 6.02 -8 5 C-5 6 -5 6 -4 7 C-3.896875 6.401875 -3.79375 5.80375 -3.6875 5.1875 C-2.91123545 2.71756736 -1.92911079 1.67748765 0 0 Z " fill="#E5927B" transform="translate(95,83)"/>
<path d="M0 0 C0.7734375 -0.01224609 1.546875 -0.02449219 2.34375 -0.03710938 C7.63912518 -0.05043666 12.16101119 0.71773497 17.25 2.1875 C17.25 2.8475 17.25 3.5075 17.25 4.1875 C15.27 5.1775 13.29 6.1675 11.25 7.1875 C11.25 6.1975 11.25 5.2075 11.25 4.1875 C3.33 4.6825 3.33 4.6825 -4.75 5.1875 C-4.75 5.8475 -4.75 6.5075 -4.75 7.1875 C-5.74 7.5175 -6.73 7.8475 -7.75 8.1875 C-9.45884005 6.56410195 -11.12446717 4.89430947 -12.75 3.1875 C-12.75 2.5275 -12.75 1.8675 -12.75 1.1875 C-8.46320923 -0.01359216 -4.42499567 0.00361519 0 0 Z " fill="#DC544E" transform="translate(112.75,58.8125)"/>
<path d="M0 0 C4.28324091 2.51407619 6.64531705 4.12314139 8 9 C7.34 9.66 6.68 10.32 6 11 C6.66 11 7.32 11 8 11 C7.125 15.75 7.125 15.75 6 18 C5.34 18 4.68 18 4 18 C4 17.34 4 16.68 4 16 C3.34 16 2.68 16 2 16 C1.67 15.34 1.34 14.68 1 14 C0.01 13.67 -0.98 13.34 -2 13 C-2 12.01 -2 11.02 -2 10 C-3.65 10 -5.3 10 -7 10 C-7 9.34 -7 8.68 -7 8 C-5.02 7.34 -3.04 6.68 -1 6 C-0.67 4.02 -0.34 2.04 0 0 Z " fill="#DDF1F9" transform="translate(127,86)"/>
<path d="M0 0 C2.475 0.495 2.475 0.495 5 1 C5 1.66 5 2.32 5 3 C6.65 3 8.3 3 10 3 C10.61741425 11.02638522 10.61741425 11.02638522 8.375 14.5625 C6 16 6 16 0 16 C0 12.04 0 8.08 0 4 C0.66 3.67 1.32 3.34 2 3 C1.34 2.67 0.68 2.34 0 2 C0 1.34 0 0.68 0 0 Z " fill="#F4826D" transform="translate(151,108)"/>
<path d="M0 0 C0.33 0 0.66 0 1 0 C3 7.625 3 7.625 3 11 C2.2575 11.144375 1.515 11.28875 0.75 11.4375 C-1.52027739 11.90187492 -3.75759479 12.41863569 -6 13 C-6.66 11.68 -7.32 10.36 -8 9 C-8.99 9 -9.98 9 -11 9 C-10.67 8.01 -10.34 7.02 -10 6 C-8.68 6 -7.36 6 -6 6 C-6 5.34 -6 4.68 -6 4 C-4.02 4 -2.04 4 0 4 C0 2.68 0 1.36 0 0 Z M-6 14 C-7 17 -7 17 -9 18 C-8.67 18.66 -8.34 19.32 -8 20 C-13.75 18.25 -13.75 18.25 -16 16 C-14.71211992 15.46987262 -13.41953322 14.9511671 -12.125 14.4375 C-11.40570313 14.14746094 -10.68640625 13.85742188 -9.9453125 13.55859375 C-8 13 -8 13 -6 14 Z " fill="#E7685A" transform="translate(86,68)"/>
<path d="M0 0 C2.31 0 4.62 0 7 0 C3.53010687 7.57986363 -2.92598771 13.70680634 -10 18 C-10.66 18 -11.32 18 -12 18 C-12 18.66 -12 19.32 -12 20 C-12.99 20.33 -13.98 20.66 -15 21 C-14.67 18.36 -14.34 15.72 -14 13 C-13.34 13.66 -12.68 14.32 -12 15 C-11.67 14.01 -11.34 13.02 -11 12 C-10.34 12 -9.68 12 -9 12 C-8.67 11.01 -8.34 10.02 -8 9 C-6.15234375 8.26953125 -6.15234375 8.26953125 -3.9375 7.8125 C-2.83728516 7.57466797 -2.83728516 7.57466797 -1.71484375 7.33203125 C-1.14894531 7.22246094 -0.58304688 7.11289063 0 7 C0 4.69 0 2.38 0 0 Z " fill="#EC7262" transform="translate(152,144)"/>
<path d="M0 0 C0.99 0 1.98 0 3 0 C2.34 1.98 1.68 3.96 1 6 C1.66 6.33 2.32 6.66 3 7 C3.33 6.01 3.66 5.02 4 4 C4.33 4 4.66 4 5 4 C5 7.63 5 11.26 5 15 C6.98 15 8.96 15 11 15 C11 15.33 11 15.66 11 16 C8.69 16 6.38 16 4 16 C4 15.01 4 14.02 4 13 C2.68 13 1.36 13 0 13 C-0.33 13.99 -0.66 14.98 -1 16 C-1.99 16 -2.98 16 -4 16 C-4.66 13.03 -5.32 10.06 -6 7 C-4.68 6.34 -3.36 5.68 -2 5 C-0.71745356 2.46229997 -0.71745356 2.46229997 0 0 Z " fill="#2FB4E7" transform="translate(105,126)"/>
<path d="M0 0 C4.875 0.875 4.875 0.875 6 2 C6.04063832 3.66617115 6.042721 5.33388095 6 7 C7.65 7.33 9.3 7.66 11 8 C11 8.33 11 8.66 11 9 C8.69 9 6.38 9 4 9 C3.34 10.98 2.68 12.96 2 15 C-1.875 14.125 -1.875 14.125 -3 13 C-3.36015175 7.59772371 -3.35910997 4.47881329 0 0 Z " fill="#58B1DE" transform="translate(84,107)"/>
<path d="M0 0 C6.51791392 -0.3540919 11.17521449 -0.03901852 17 3 C17 4.98 17 6.96 17 9 C16.01 9 15.02 9 14 9 C14 8.34 14 7.68 14 7 C7.84629161 5.176679 2.40353322 4.7638041 -4 5 C-3.34 4.67 -2.68 4.34 -2 4 C-2 3.34 -2 2.68 -2 2 C-1.34 2 -0.68 2 0 2 C0 1.34 0 0.68 0 0 Z " fill="#92B5D4" transform="translate(110,83)"/>
<path d="M0 0 C2.16874252 0.50603992 3.99967627 0.99983813 6 2 C4.125 6.75 4.125 6.75 3 9 C2.34 9 1.68 9 1 9 C0.67 9.33 0.34 9.66 0 10 C-2.31856917 11.54571278 -4.50638429 12.79618552 -7 14 C-7 15.65 -7 17.3 -7 19 C-8.98 18.67 -10.96 18.34 -13 18 C-11.21336089 14.31505683 -9.05760536 12.11068042 -5.9375 9.5625 C-2.49756743 6.68431789 -0.88327195 4.52676875 0 0 Z " fill="#F19E80" transform="translate(143,123)"/>
<path d="M0 0 C0.66 0 1.32 0 2 0 C2 0.99 2 1.98 2 3 C2.66 3 3.32 3 4 3 C4.33 3.99 4.66 4.98 5 6 C4.34 6 3.68 6 3 6 C0.91188748 10.16849129 0.97815782 12.77846452 1.875 17.3125 C2.07867187 18.38113281 2.28234375 19.44976562 2.4921875 20.55078125 C2.65976563 21.35902344 2.82734375 22.16726562 3 23 C3.66 23 4.32 23 5 23 C5 23.66 5 24.32 5 25 C4.01 25 3.02 25 2 25 C-2 20.65714286 -2 20.65714286 -2 18 C-2.66 18 -3.32 18 -4 18 C-3.74379316 16.3934324 -3.46944129 14.7897517 -3.1875 13.1875 C-3.03667969 12.29417969 -2.88585937 11.40085937 -2.73046875 10.48046875 C-1.93305441 7.7726714 -0.99029895 6.90184122 1 5 C0.76956136 2.34533951 0.76956136 2.34533951 0 0 Z " fill="#6EBFEC" transform="translate(93,116)"/>
<path d="M0 0 C0.99 -0.33 1.98 -0.66 3 -1 C3 -0.34 3 0.32 3 1 C4.65 1 6.3 1 8 1 C8 1.33 8 1.66 8 2 C7.05125 2.103125 6.1025 2.20625 5.125 2.3125 C1.70892499 2.68539295 1.70892499 2.68539295 0 6 C-0.99 6 -1.98 6 -3 6 C-3 5.34 -3 4.68 -3 4 C-4.97536745 4.34786708 -4.97536745 4.34786708 -7 5 C-7.33 5.66 -7.66 6.32 -8 7 C-10.38564077 6.42415568 -12.66682784 5.77772405 -15 5 C-16.66621616 4.96125079 -18.33394172 4.9549714 -20 5 C-16.5980513 2.90649311 -13.94727588 2.82057837 -10 3 C-10 2.01 -10 1.02 -10 0 C-6.39763981 -1.24697084 -3.69912993 -0.62963914 0 0 Z " fill="#156698" transform="translate(117,91)"/>
<path d="M0 0 C0.66 0 1.32 0 2 0 C3.27887477 3.95007287 3.22041893 7.95442874 3.25 12.0625 C3.270625 12.78244141 3.29125 13.50238281 3.3125 14.24414062 C3.35181304 19.5366586 3.35181304 19.5366586 1.484375 21.99609375 C0.99453125 22.32738281 0.5046875 22.65867187 0 23 C-1.10228696 18.59085217 -1.07654536 14.51617599 -1 10 C-1.66 9.67 -2.32 9.34 -3 9 C-3.25532751 5.93606987 -3.21861333 4.36766788 -1.625 1.6875 C-0.820625 0.8521875 -0.820625 0.8521875 0 0 Z " fill="#E46157" transform="translate(165,102)"/>
<path d="M0 0 C2.31 0 4.62 0 7 0 C5.68 0.33 4.36 0.66 3 1 C5.475 1.99 5.475 1.99 8 3 C8 3.99 8 4.98 8 6 C9.32 6.33 10.64 6.66 12 7 C12 7.66 12 8.32 12 9 C12.66 9 13.32 9 14 9 C14.33 9.99 14.66 10.98 15 12 C14.01 12 13.02 12 12 12 C11.67 12.66 11.34 13.32 11 14 C10.236875 13.195625 9.47375 12.39125 8.6875 11.5625 C6.20569102 8.83200976 6.20569102 8.83200976 3 8 C3 7.34 3 6.68 3 6 C1.02 6 -0.96 6 -3 6 C-3 5.34 -3 4.68 -3 4 C-1.68 3.34 -0.36 2.68 1 2 C0.67 1.34 0.34 0.68 0 0 Z " fill="#7FC3EC" transform="translate(117,93)"/>
<path d="M0 0 C5.6626826 2.8313413 9.15619099 5.98756041 13 11 C12.01 11.33 11.02 11.66 10 12 C7.3125 10.5625 7.3125 10.5625 5 9 C5 9.66 5 10.32 5 11 C5.66 11.33 6.32 11.66 7 12 C6.401875 11.835 5.80375 11.67 5.1875 11.5 C2.88655664 10.8885876 2.88655664 10.8885876 0 11 C0 7.37 0 3.74 0 0 Z " fill="#ED5652" transform="translate(142,68)"/>
<path d="M0 0 C0.33 0.99 0.66 1.98 1 3 C3.97 3.495 3.97 3.495 7 4 C7 4.66 7 5.32 7 6 C8.65 6.66 10.3 7.32 12 8 C12 8.33 12 8.66 12 9 C7.14270355 9.97299156 2.5499375 10.12038805 -2.375 10.0625 C-3.11105469 10.05798828 -3.84710938 10.05347656 -4.60546875 10.04882812 C-6.40368158 10.03715142 -8.20185197 10.01922011 -10 10 C-6.91190305 8.23537317 -5.76687864 8 -2 8 C-2 7.34 -2 6.68 -2 6 C-1.34 6 -0.68 6 0 6 C0 4.02 0 2.04 0 0 Z " fill="#E77465" transform="translate(114,160)"/>
<path d="M0 0 C0.66 0.33 1.32 0.66 2 1 C2 1.66 2 2.32 2 3 C2.66 3 3.32 3 4 3 C7.25369979 8.90486258 7.25369979 8.90486258 6.53125 12.0234375 C5.6875 13.9375 5.6875 13.9375 4 17 C3.01 17 2.02 17 1 17 C0.67 17.66 0.34 18.32 0 19 C-0.33 17.68 -0.66 16.36 -1 15 C-0.34 14.67 0.32 14.34 1 14 C0.67 10.7 0.34 7.4 0 4 C-0.66 4 -1.32 4 -2 4 C-1 1 -1 1 0 0 Z " fill="#366691" transform="translate(135,93)"/>
<path d="M0 0 C2.76223278 2.76223278 2.57856291 5.20706617 3 9 C2.34 9 1.68 9 1 9 C1 9.99 1 10.98 1 12 C1.66 12 2.32 12 3 12 C2.5206753 16.31392226 1.2542015 18.16569547 -2 21 C-2.6875 19.1875 -2.6875 19.1875 -3 17 C-1.5625 15.25 -1.5625 15.25 0 14 C-1.65 14.66 -3.3 15.32 -5 16 C-4.484375 15.071875 -3.96875 14.14375 -3.4375 13.1875 C-1.59903754 10.07242053 -1.59903754 10.07242053 -3 7 C-3.66 7 -4.32 7 -5 7 C-5 6.34 -5 5.68 -5 5 C-4.01 4.67 -3.02 4.34 -2 4 C-0.79117904 1.99983534 -0.79117904 1.99983534 0 0 Z " fill="#5EB5E5" transform="translate(134,100)"/>
<path d="M0 0 C1.32 0 2.64 0 4 0 C4.33 1.65 4.66 3.3 5 5 C6.65 4.67 8.3 4.34 10 4 C10 4.99 10 5.98 10 7 C9.67 7.33 9.34 7.66 9 8 C9.33 9.32 9.66 10.64 10 12 C6.7 11.67 3.4 11.34 0 11 C0 7.37 0 3.74 0 0 Z " fill="#03A0DD" transform="translate(110,130)"/>
<path d="M0 0 C1.22589844 0.15275391 1.22589844 0.15275391 2.4765625 0.30859375 C3.41628906 0.43427734 3.41628906 0.43427734 4.375 0.5625 C3.385 1.2225 2.395 1.8825 1.375 2.5625 C2.365 3.2225 3.355 3.8825 4.375 4.5625 C2.725 4.5625 1.075 4.5625 -0.625 4.5625 C-0.625 5.2225 -0.625 5.8825 -0.625 6.5625 C0.035 6.8925 0.695 7.2225 1.375 7.5625 C0.4159375 7.8409375 0.4159375 7.8409375 -0.5625 8.125 C-3.04626213 9.50496056 -3.04626213 9.50496056 -3.375 13.1875 C-3.4575 14.30125 -3.54 15.415 -3.625 16.5625 C-3.955 16.5625 -4.285 16.5625 -4.625 16.5625 C-5.285 11.2825 -5.945 6.0025 -6.625 0.5625 C-4.10446405 -0.69776798 -2.7707902 -0.35624445 0 0 Z " fill="#F57465" transform="translate(67.625,103.4375)"/>
<path d="M0 0 C1.5778125 0.433125 1.5778125 0.433125 3.1875 0.875 C3.5175 1.865 3.8475 2.855 4.1875 3.875 C-1.4375 6.875 -1.4375 6.875 -4.8125 6.875 C-4.8125 7.535 -4.8125 8.195 -4.8125 8.875 C-5.8025 9.37 -5.8025 9.37 -6.8125 9.875 C-7.1425 10.535 -7.4725 11.195 -7.8125 11.875 C-8.4725 11.545 -9.1325 11.215 -9.8125 10.875 C-9.27269435 4.75720261 -6.51586247 -0.21363484 0 0 Z " fill="#443435" transform="translate(39.8125,55.125)"/>
<path d="M0 0 C0.33 1.32 0.66 2.64 1 4 C1.66 4 2.32 4 3 4 C3 5.65 3 7.3 3 9 C-2.75 12 -2.75 12 -5 12 C-5.33 12.66 -5.66 13.32 -6 14 C-6.66 13.67 -7.32 13.34 -8 13 C-8 12.01 -8 11.02 -8 10 C-7.01 10 -6.02 10 -5 10 C-5 9.34 -5 8.68 -5 8 C-5.66 8 -6.32 8 -7 8 C-7 7.01 -7 6.02 -7 5 C-5.35 5.33 -3.7 5.66 -2 6 C-1.34 4.02 -0.68 2.04 0 0 Z " fill="#5EB5E4" transform="translate(103,106)"/>
<path d="M0 0 C5.94 0 11.88 0 18 0 C17.67 3.63 17.34 7.26 17 11 C16.34 9.68 15.68 8.36 15 7 C14.67 6.67 14.34 6.34 14 6 C13.95936168 4.33382885 13.957279 2.66611905 14 1 C11.69 1.33 9.38 1.66 7 2 C6.7525 2.804375 6.505 3.60875 6.25 4.4375 C5 7 5 7 2.875 7.8125 C2.25625 7.874375 1.6375 7.93625 1 8 C1.33 5.69 1.66 3.38 2 1 C1.34 0.67 0.68 0.34 0 0 Z " fill="#E8645A" transform="translate(106,63)"/>
<path d="M0 0 C2 0 2 0 3.5625 1.3125 C5 3 5 3 6 6 C4.90203779 9.75137087 4.34098676 10.77267549 1 13 C1 12.34 1 11.68 1 11 C0.34 11 -0.32 11 -1 11 C-1 11.99 -1 12.98 -1 14 C-1.99 14 -2.98 14 -4 14 C-4.33 12.68 -4.66 11.36 -5 10 C-4.01 9.195625 -3.02 8.39125 -2 7.5625 C-1.01 6.716875 -0.02 5.87125 1 5 C1 4.67 1 4.34 1 4 C0.34 4 -0.32 4 -1 4 C-0.67 2.68 -0.34 1.36 0 0 Z " fill="#3E6B94" transform="translate(137,119)"/>
<path d="M0 0 C2.09312358 3.55385663 2.68618943 7.01065405 3.3125 11.0625 C3.51488281 12.29097656 3.71726562 13.51945312 3.92578125 14.78515625 C4 18 4 18 2.60546875 19.74609375 C2.07566406 20.15988281 1.54585937 20.57367188 1 21 C0.67 21.99 0.34 22.98 0 24 C-0.66 24 -1.32 24 -2 24 C-2.125 18.25 -2.125 18.25 -1 16 C-0.9310528 14.62657169 -0.91532292 13.24997898 -0.9375 11.875 C-0.958125 10.59625 -0.97875 9.3175 -1 8 C-0.34 8 0.32 8 1 8 C0.67 5.36 0.34 2.72 0 0 Z " fill="#E76A5B" transform="translate(60,104)"/>
<path d="M0 0 C2.97 0.99 5.94 1.98 9 3 C8.25 10.625 8.25 10.625 6 14 C4.16308743 10.21812119 3.84162374 8.05431692 5 4 C4.34 4 3.68 4 3 4 C3 5.65 3 7.3 3 9 C2.62875 8.0409375 2.62875 8.0409375 2.25 7.0625 C1.18437567 4.81258459 1.18437567 4.81258459 -1.125 4.25 C-1.74375 4.1675 -2.3625 4.085 -3 4 C-2.01 2.68 -1.02 1.36 0 0 Z " fill="#3F3331" transform="translate(198,130)"/>
<path d="M0 0 C0.99 0.33 1.98 0.66 3 1 C3 1.99 3 2.98 3 4 C4.32 4.33 5.64 4.66 7 5 C5.35 5.33 3.7 5.66 2 6 C2 6.66 2 7.32 2 8 C0.68 8.33 -0.64 8.66 -2 9 C-2 10.32 -2 11.64 -2 13 C-4.475 12.01 -4.475 12.01 -7 11 C-7 10.34 -7 9.68 -7 9 C-6.01 8.67 -5.02 8.34 -4 8 C-4.33 7.34 -4.66 6.68 -5 6 C-4.34 6 -3.68 6 -3 6 C-3 4.68 -3 3.36 -3 2 C-2.01 1.34 -1.02 0.68 0 0 Z " fill="#7AC3EB" transform="translate(102,95)"/>
<path d="M0 0 C0.99 0.66 1.98 1.32 3 2 C2.01 4.97 1.02 7.94 0 11 C-1.32 10.34 -2.64 9.68 -4 9 C-4.75 6.375 -4.75 6.375 -5 4 C-5.99 3.67 -6.98 3.34 -8 3 C-8 2.34 -8 1.68 -8 1 C-5.22899606 -0.38550197 -3.0665294 -0.1877467 0 0 Z " fill="#9BD4F4" transform="translate(121,120)"/>
<path d="M0 0 C0.66 0 1.32 0 2 0 C2 6.6 2 13.2 2 20 C0.02 20.99 0.02 20.99 -2 22 C-3.38226016 19.23547967 -3.09525387 16.9538637 -3.0625 13.875 C-3.05347656 12.77929688 -3.04445312 11.68359375 -3.03515625 10.5546875 C-3.02355469 9.71164063 -3.01195312 8.86859375 -3 8 C-2.67 8 -2.34 8 -2 8 C-2 11.63 -2 15.26 -2 19 C-1.34 19 -0.68 19 0 19 C-0.12568359 17.31970703 -0.12568359 17.31970703 -0.25390625 15.60546875 C-0.35708445 14.13283444 -0.45993179 12.66017692 -0.5625 11.1875 C-0.61857422 10.44951172 -0.67464844 9.71152344 -0.73242188 8.95117188 C-0.95769724 5.63211484 -1.06255812 3.18767436 0 0 Z " fill="#DE383E" transform="translate(43,104)"/>
<path d="M0 0 C0.99 0 1.98 0 3 0 C3.33 1.32 3.66 2.64 4 4 C4.66 3.34 5.32 2.68 6 2 C6 4.31 6 6.62 6 9 C-2.57142857 10.42857143 -2.57142857 10.42857143 -6 8 C-6 6.35 -6 4.7 -6 3 C-5.67 4.32 -5.34 5.64 -5 7 C-4.34 6.34 -3.68 5.68 -3 5 C-3 4.34 -3 3.68 -3 3 C-2.34 3 -1.68 3 -1 3 C-0.67 2.01 -0.34 1.02 0 0 Z " fill="#443237" transform="translate(130,200)"/>
<path d="M0 0 C0.7425 0.185625 1.485 0.37125 2.25 0.5625 C4.99177639 0.9986917 6.39298201 0.75202442 9 0 C9.67260351 1.76858691 10.33788395 3.53996016 11 5.3125 C11.37125 6.29863281 11.7425 7.28476563 12.125 8.30078125 C13 11 13 11 13 14 C10 12 10 12 9 9 C8.01 9.495 8.01 9.495 7 10 C7 9.01 7 8.02 7 7 C6.01 7 5.02 7 4 7 C2.02 3.535 2.02 3.535 0 0 Z " fill="#E9A089" transform="translate(73,120)"/>
<path d="M0 0 C3.12881416 0.63279388 5.47746008 1.69711412 8.1875 3.375 C9.22970703 4.00535156 9.22970703 4.00535156 10.29296875 4.6484375 C12 6 12 6 13 9 C11.68 9 10.36 9 9 9 C9 8.34 9 7.68 9 7 C8.01 7.66 7.02 8.32 6 9 C5.01 9 4.02 9 3 9 C2.896875 8.360625 2.79375 7.72125 2.6875 7.0625 C2.460625 6.381875 2.23375 5.70125 2 5 C1.01 4.67 0.02 4.34 -1 4 C-0.67 2.68 -0.34 1.36 0 0 Z " fill="#F7AF8D" transform="translate(89,138)"/>
<path d="M0 0 C0.66 0 1.32 0 2 0 C2.03758423 0.97610229 2.03758423 0.97610229 2.07592773 1.97192383 C2.19193702 4.91898046 2.31464115 7.8657213 2.4375 10.8125 C2.47681641 11.83666016 2.51613281 12.86082031 2.55664062 13.91601562 C2.59853516 14.89892578 2.64042969 15.88183594 2.68359375 16.89453125 C2.72025146 17.80050049 2.75690918 18.70646973 2.79467773 19.63989258 C2.9208205 22.15048782 2.9208205 22.15048782 4 25 C2.68 25.33 1.36 25.66 0 26 C0 17.42 0 8.84 0 0 Z " fill="#D7373E" transform="translate(180,104)"/>
<path d="M0 0 C0 0.99 0 1.98 0 3 C1.98 2.67 3.96 2.34 6 2 C6.33 3.32 6.66 4.64 7 6 C1.9752761 6.62529897 -2.92528427 7.13012092 -8 7 C-7.67 6.34 -7.34 5.68 -7 5 C-6.01 5 -5.02 5 -4 5 C-4 4.01 -4 3.02 -4 2 C-6.64 1.67 -9.28 1.34 -12 1 C-12 0.67 -12 0.34 -12 0 C-7.6835078 -0.76173392 -4.25566547 -1.16063604 0 0 Z " fill="#503437" transform="translate(162,37)"/>
<path d="M0 0 C0 0.66 0 1.32 0 2 C-0.66 2 -1.32 2 -2 2 C-2 2.66 -2 3.32 -2 4 C-8.27692308 8.06153846 -8.27692308 8.06153846 -11.9375 7.75 C-12.618125 7.5025 -13.29875 7.255 -14 7 C-14 6.34 -14 5.68 -14 5 C-12.35 4.67 -10.7 4.34 -9 4 C-9 3.01 -9 2.02 -9 1 C-5.8035914 -0.06546953 -3.34252724 -0.07427838 0 0 Z " fill="#E6F2F9" transform="translate(110,83)"/>
<path d="M0 0 C0.33 1.32 0.66 2.64 1 4 C7.27 4.33 13.54 4.66 20 5 C14.04215777 7.97892111 7.05376523 8.13847627 0.59375 6.32421875 C-1.3125 5.5 -1.3125 5.5 -4 4 C-3.34 3.67 -2.68 3.34 -2 3 C-2 2.34 -2 1.68 -2 1 C-1.34 0.67 -0.68 0.34 0 0 Z " fill="#00639E" transform="translate(100,138)"/>
<path d="M0 0 C0.66 0.33 1.32 0.66 2 1 C2 2.32 2 3.64 2 5 C1.34 5 0.68 5 0 5 C-0.33 6.32 -0.66 7.64 -1 9 C-0.01 8.67 0.98 8.34 2 8 C2 9.32 2 10.64 2 12 C1.34 11.67 0.68 11.34 0 11 C-0.99 12.32 -1.98 13.64 -3 15 C-4.32 14.34 -5.64 13.68 -7 13 C-5.68 12.67 -4.36 12.34 -3 12 C-3.37125 10.4221875 -3.37125 10.4221875 -3.75 8.8125 C-4 5 -4 5 -2.0625 2.0625 C-1.381875 1.381875 -0.70125 0.70125 0 0 Z " fill="#1E5482" transform="translate(137,114)"/>
<path d="M0 0 C2.32158065 -0.34659295 2.32158065 -0.34659295 4 -1 C4.33 0.98 4.66 2.96 5 5 C3.3603125 4.5359375 3.3603125 4.5359375 1.6875 4.0625 C-3.48276323 2.7536901 -8.69261392 2.37073653 -14 2 C-13.67 1.34 -13.34 0.68 -13 0 C-8.38717572 -1.20812064 -4.66071426 -0.69047619 0 0 Z " fill="#F19F87" transform="translate(123,81)"/>
<path d="M0 0 C3.3 0 6.6 0 10 0 C9.525625 0.7425 9.05125 1.485 8.5625 2.25 C7.22130673 4.61050015 6.487688 6.36648477 6 9 C5.34 9 4.68 9 4 9 C3.67 8.01 3.34 7.02 3 6 C2.01 5.67 1.02 5.34 0 5 C0 3.35 0 1.7 0 0 Z " fill="#F79E7D" transform="translate(112,151)"/>
<path d="M0 0 C1.2890625 1.6796875 1.2890625 1.6796875 2.625 3.875 C3.29402344 4.95394531 3.29402344 4.95394531 3.9765625 6.0546875 C5 8 5 8 5 10 C2.36 9.67 -0.28 9.34 -3 9 C-3.33 6.36 -3.66 3.72 -4 1 C-2 0 -2 0 0 0 Z " fill="#DF5B54" transform="translate(157,80)"/>
<path d="M0 0 C4.75 0.875 4.75 0.875 7 2 C7.72159424 3.64363134 8.39351421 5.31050386 9 7 C9.99 7 10.98 7 12 7 C13.6875 8.5 13.6875 8.5 15 10 C13.3125 10.6875 13.3125 10.6875 11 11 C8.25 9.8125 8.25 9.8125 6 8 C6 6.68 6 5.36 6 4 C4.35 4.33 2.7 4.66 1 5 C0.67 3.35 0.34 1.7 0 0 Z " fill="#1C93CA" transform="translate(109,122)"/>
<path d="M0 0 C6.51722911 0.33709806 9.32539218 1.44225737 14 6 C13.67 6.66 13.34 7.32 13 8 C10.21975752 7.07325251 7.53030147 6.03167981 4.8125 4.9375 C3.91144531 4.57527344 3.01039062 4.21304688 2.08203125 3.83984375 C1.39496094 3.56269531 0.70789063 3.28554687 0 3 C0 2.01 0 1.02 0 0 Z " fill="#D6313A" transform="translate(18,136)"/>
<path d="M0 0 C3.89393086 1.35834798 5.24431949 3.6566576 7.6875 6.9375 C5.3125 7.5625 5.3125 7.5625 2.6875 7.9375 C0.6875 5.9375 0.6875 5.9375 -0.3125 3.9375 C-1.9625 3.9375 -3.6125 3.9375 -5.3125 3.9375 C-4.9825 2.9475 -4.6525 1.9575 -4.3125 0.9375 C-2.3125 -0.0625 -2.3125 -0.0625 0 0 Z " fill="#5CB8E7" transform="translate(91.3125,102.0625)"/>
<path d="M0 0 C0.68707555 2.49064888 1 4.37886292 1 7 C1.66 6.67 2.32 6.34 3 6 C3 7.65 3 9.3 3 11 C2.01 11.33 1.02 11.66 0 12 C-0.33 12.99 -0.66 13.98 -1 15 C-3.33479983 11.35187527 -3.38018947 8.25812212 -3 4 C-1.5 1.5625 -1.5 1.5625 0 0 Z " fill="#473A35" transform="translate(122,151)"/>
<path d="M0 0 C2.57937706 2.57937706 3 3.72003004 3 7.4375 C1.83411739 11.59095681 0.29254815 13.28364778 -3 16 C-3.33 16 -3.66 16 -4 16 C-4 14.35 -4 12.7 -4 11 C-3.360625 10.7525 -2.72125 10.505 -2.0625 10.25 C0.18741541 9.18437567 0.18741541 9.18437567 0.75 6.875 C0.8325 6.25625 0.915 5.6375 1 5 C0.01 4.67 -0.98 4.34 -2 4 C-2 3.01 -2 2.02 -2 1 C-1.34 0.67 -0.68 0.34 0 0 Z " fill="#453735" transform="translate(77,88)"/>
<path d="M0 0 C0.66 0.33 1.32 0.66 2 1 C2.4140625 3.50390625 2.4140625 3.50390625 2.625 6.5625 C2.69976562 7.57441406 2.77453125 8.58632812 2.8515625 9.62890625 C2.90054688 10.41136719 2.94953125 11.19382813 3 12 C1.35 11.67 -0.3 11.34 -2 11 C-1.95875 10.2575 -1.9175 9.515 -1.875 8.75 C-2.00398134 5.91241048 -2.57051222 4.41226062 -4 2 C-2.125 0.9375 -2.125 0.9375 0 0 Z " fill="#0A8DC6" transform="translate(125,125)"/>
<path d="M0 0 C4.29 0 8.58 0 13 0 C12.67 0.99 12.34 1.98 12 3 C11.34 3 10.68 3 10 3 C10 3.66 10 4.32 10 5 C10.66 5.33 11.32 5.66 12 6 C11.01 6.66 10.02 7.32 9 8 C9 7.34 9 6.68 9 6 C7.35 5.67 5.7 5.34 4 5 C4 4.67 4 4.34 4 4 C2.35 3.67 0.7 3.34 -1 3 C-0.67 2.01 -0.34 1.02 0 0 Z " fill="#E37E67" transform="translate(127,80)"/>
<path d="M0 0 C0.12375 0.639375 0.2475 1.27875 0.375 1.9375 C0.684375 2.9584375 0.684375 2.9584375 1 4 C1.66 4.33 2.32 4.66 3 5 C-1.75 8 -1.75 8 -4 8 C-4 8.66 -4 9.32 -4 10 C-4.99 10.33 -5.98 10.66 -7 11 C-6.67 8.36 -6.34 5.72 -6 3 C-5.34 3.66 -4.68 4.32 -4 5 C-3.67 4.01 -3.34 3.02 -3 2 C-2.01 1.34 -1.02 0.68 0 0 Z " fill="#D86E5F" transform="translate(144,154)"/>
<path d="M0 0 C0.66 0 1.32 0 2 0 C2.33 0.99 2.66 1.98 3 3 C2.34 3 1.68 3 1 3 C0.37542727 6.43515002 0 9.49064814 0 13 C1.9254644 14.1490712 1.9254644 14.1490712 4 14 C4 14.99 4 15.98 4 17 C2.68 17 1.36 17 0 17 C-3.69211514 7.42553191 -3.69211514 7.42553191 -2 3 C-1.34 2.01 -0.68 1.02 0 0 Z " fill="#84CAEE" transform="translate(96,122)"/>
<path d="M0 0 C0.99 0.33 1.98 0.66 3 1 C2.34 1 1.68 1 1 1 C1.33 1.66 1.66 2.32 2 3 C2.99 3.33 3.98 3.66 5 4 C4.67 6.64 4.34 9.28 4 12 C1.4375 10.5 1.4375 10.5 -1 8 C-1.15374792 5.12271746 -0.61846819 2.85446858 0 0 Z " fill="#273632" transform="translate(131,21)"/>
<path d="M0 0 C1.32 0 2.64 0 4 0 C4 0.99 4 1.98 4 3 C3.34 3 2.68 3 2 3 C2 3.99 2 4.98 2 6 C-0.90600261 7.25664978 -2.79604584 8 -6 8 C-6 7.34 -6 6.68 -6 6 C-5.34 5.67 -4.68 5.34 -4 5 C-4 4.01 -4 3.02 -4 2 C-3.01 2.33 -2.02 2.66 -1 3 C-0.67 2.01 -0.34 1.02 0 0 Z " fill="#64ADDB" transform="translate(110,95)"/>
<path d="M0 0 C0.33 0.66 0.66 1.32 1 2 C2.65 2 4.3 2 6 2 C6 3.98 6 5.96 6 8 C7.32 8.33 8.64 8.66 10 9 C9.67 9.66 9.34 10.32 9 11 C8.34 11 7.68 11 7 11 C7 10.34 7 9.68 7 9 C6.34 9 5.68 9 5 9 C4.67 8.34 4.34 7.68 4 7 C3.01 6.67 2.02 6.34 1 6 C1 5.01 1 4.02 1 3 C-0.65 3 -2.3 3 -4 3 C-4 2.34 -4 1.68 -4 1 C-2.68 0.67 -1.36 0.34 0 0 Z " fill="#B5DCF4" transform="translate(124,93)"/>
<path d="M0 0 C2.05078125 0.03255208 4.1015625 0.06510417 6.15234375 0.09765625 C6.15234375 0.42765625 6.15234375 0.75765625 6.15234375 1.09765625 C3.84234375 1.42765625 1.53234375 1.75765625 -0.84765625 2.09765625 C-1.17765625 5.06765625 -1.50765625 8.03765625 -1.84765625 11.09765625 C-2.83765625 11.09765625 -3.82765625 11.09765625 -4.84765625 11.09765625 C-4.53983129 9.45094213 -4.22626391 7.80530049 -3.91015625 6.16015625 C-3.73613281 5.24363281 -3.56210937 4.32710938 -3.3828125 3.3828125 C-2.62306609 0.13863986 -2.62306609 0.13863986 0 0 Z " fill="#30342C" transform="translate(22.84765625,84.90234375)"/>
<path d="M0 0 C0.33 0.66 0.66 1.32 1 2 C0.01 3.485 0.01 3.485 -1 5 C-0.01 5.66 0.98 6.32 2 7 C1 8 1 8 -0.84765625 8.09765625 C-2.8984375 8.06510417 -4.94921875 8.03255208 -7 8 C-7 7.67 -7 7.34 -7 7 C-9.97 6.505 -9.97 6.505 -13 6 C-13 5.67 -13 5.34 -13 5 C-11.1746875 4.87625 -11.1746875 4.87625 -9.3125 4.75 C-5.21534129 4.26241628 -2.99860092 2.90489464 0 0 Z " fill="#523434" transform="translate(34,79)"/>
<path d="M0 0 C1.98 0.66 3.96 1.32 6 2 C6 2.66 6 3.32 6 4 C-0.625 6.875 -0.625 6.875 -4 8 C-3.50168276 4.31245243 -2.89932357 2.39509338 0 0 Z " fill="#D99887" transform="translate(95,83)"/>
<path d="M0 0 C-0.33 1.32 -0.66 2.64 -1 4 C-1 3.01 -1 2.02 -1 1 C-3.97017694 1.62810173 -3.97017694 1.62810173 -7 3 C-8.31068333 5.44288628 -8.31068333 5.44288628 -9 8 C-9.66 8.66 -10.32 9.32 -11 10 C-10.979375 9.030625 -10.95875 8.06125 -10.9375 7.0625 C-10.64381501 4.12534105 -10.64381501 4.12534105 -12 3 C-12.33 3.99 -12.66 4.98 -13 6 C-13 4.68 -13 3.36 -13 2 C-4.57142857 -0.28571429 -4.57142857 -0.28571429 0 0 Z " fill="#573334" transform="translate(103,18)"/>
<path d="M0 0 C2.97 0.33 5.94 0.66 9 1 C9.33 2.32 9.66 3.64 10 5 C7 5 4 5 1 5 C0.67 3.35 0.34 1.7 0 0 Z " fill="#0D9BD5" transform="translate(99,133)"/>
<path d="M0 0 C0.33 0.66 0.66 1.32 1 2 C0.01 2.495 0.01 2.495 -1 3 C-1 3.66 -1 4.32 -1 5 C-0.01 5.33 0.98 5.66 2 6 C0.93453047 8.13093906 -0.29159719 9.36587557 -2 11 C-2 10.01 -2 9.02 -2 8 C-2.66 8 -3.32 8 -4 8 C-4 9.98 -4 11.96 -4 14 C-4.33 14 -4.66 14 -5 14 C-5.78774617 5.96498906 -5.78774617 5.96498906 -2.5 1.9375 C-1.2625 0.9784375 -1.2625 0.9784375 0 0 Z " fill="#D0333B" transform="translate(198,72)"/>
<path d="M0 0 C1.98 0.495 1.98 0.495 4 1 C4 1.99 4 2.98 4 4 C5.32 4.33 6.64 4.66 8 5 C8 5.66 8 6.32 8 7 C8.66 7 9.32 7 10 7 C10.33 7.99 10.66 8.98 11 10 C10.01 10 9.02 10 8 10 C7.67 10.66 7.34 11.32 7 12 C7 10.02 7 8.04 7 6 C6.13375 5.814375 6.13375 5.814375 5.25 5.625 C2.97664233 4.99351176 1.0746471 4.11141809 -1 3 C-0.67 2.01 -0.34 1.02 0 0 Z " fill="#95CFEF" transform="translate(121,95)"/>
<path d="M0 0 C4.54805635 -0.17835515 7.8794254 0.00214565 12 2 C12 2.66 12 3.32 12 4 C11.2575 3.814375 10.515 3.62875 9.75 3.4375 C7.09586464 2.82190708 7.09586464 2.82190708 4.9375 3.5625 C2.35419883 4.14582607 1.20790796 3.34051555 -1 2 C-0.67 1.34 -0.34 0.68 0 0 Z " fill="#147EB7" transform="translate(112,88)"/>
<path d="M0 0 C3.3 0 6.6 0 10 0 C8.515 1.98 8.515 1.98 7 4 C6.34 4 5.68 4 5 4 C4.67 5.32 4.34 6.64 4 8 C2 5 2 5 2 2 C1.34 2 0.68 2 0 2 C0 1.34 0 0.68 0 0 Z " fill="#EC7F6B" transform="translate(136,152)"/>
<path d="M0 0 C2.64 0.33 5.28 0.66 8 1 C8 2.32 8 3.64 8 5 C6 6.75 6 6.75 4 8 C0 2.25 0 2.25 0 0 Z " fill="#DE6C60" transform="translate(63,139)"/>
<path d="M0 0 C0.66 0 1.32 0 2 0 C1.75 1.875 1.75 1.875 1 4 C-0.33333333 4.66666667 -1.66666667 5.33333333 -3 6 C-3.80528889 8.05000871 -3.80528889 8.05000871 -4 10 C-5.65 10.33 -7.3 10.66 -9 11 C-8.34 10.67 -7.68 10.34 -7 10 C-5.69364726 7.69467163 -4.84142926 5.52428777 -4 3 C-2.68 3 -1.36 3 0 3 C0 2.01 0 1.02 0 0 Z " fill="#175486" transform="translate(136,130)"/>
<path d="M0 0 C0.99 0.99 1.98 1.98 3 3 C2.67 3.66 2.34 4.32 2 5 C2.99 5.33 3.98 5.66 5 6 C4.01 6.33 3.02 6.66 2 7 C2 8.65 2 10.3 2 12 C1.34 12 0.68 12 0 12 C0 10.02 0 8.04 0 6 C-0.66 5.67 -1.32 5.34 -2 5 C-1.34 3.35 -0.68 1.7 0 0 Z " fill="#F19174" transform="translate(149,105)"/>
<path d="M0 0 C0 1.98 0 3.96 0 6 C-0.99 6 -1.98 6 -3 6 C-3 5.34 -3 4.68 -3 4 C-5.64 3.34 -8.28 2.68 -11 2 C-11 1.67 -11 1.34 -11 1 C-9.54182203 0.83197949 -8.0834516 0.66562857 -6.625 0.5 C-5.81289062 0.4071875 -5.00078125 0.314375 -4.1640625 0.21875 C-2 0 -2 0 0 0 Z " fill="#76ACD1" transform="translate(127,86)"/>
<path d="M0 0 C1.98 0 3.96 0 6 0 C6.33 1.65 6.66 3.3 7 5 C5.02 5.33 3.04 5.66 1 6 C0.67 4.02 0.34 2.04 0 0 Z " fill="#303533" transform="translate(158,191)"/>
<path d="M0 0 C2.64 0.66 5.28 1.32 8 2 C7.67 2.66 7.34 3.32 7 4 C5.68 4 4.36 4 3 4 C3 5.65 3 7.3 3 9 C2.62875 8.0409375 2.62875 8.0409375 2.25 7.0625 C1.18437567 4.81258459 1.18437567 4.81258459 -1.125 4.25 C-1.74375 4.1675 -2.3625 4.085 -3 4 C-2.01 2.68 -1.02 1.36 0 0 Z " fill="#513336" transform="translate(198,130)"/>
<path d="M0 0 C1.32 1.32 2.64 2.64 4 4 C3.34 4 2.68 4 2 4 C2 4.66 2 5.32 2 6 C1.34 6 0.68 6 0 6 C-0.33 6.66 -0.66 7.32 -1 8 C-1.66 8 -2.32 8 -3 8 C-3.33 8.66 -3.66 9.32 -4 10 C-3.38461538 3.47692308 -3.38461538 3.47692308 -1.4375 1.0625 C-0.7259375 0.5365625 -0.7259375 0.5365625 0 0 Z " fill="#9ABCDC" transform="translate(95,88)"/>
<path d="M0 0 C2 4 2 4 2 6 C2.99 6.33 3.98 6.66 5 7 C5 8.32 5 9.64 5 11 C5.66 11.33 6.32 11.66 7 12 C6.401875 11.835 5.80375 11.67 5.1875 11.5 C2.88655664 10.8885876 2.88655664 10.8885876 0 11 C0 7.37 0 3.74 0 0 Z " fill="#E96358" transform="translate(142,68)"/>
<path d="M0 0 C0.66 0.33 1.32 0.66 2 1 C1.375 3.4375 1.375 3.4375 0 6 C-3.125 6.8125 -3.125 6.8125 -6 7 C-6 7.66 -6 8.32 -6 9 C-6.66 9 -7.32 9 -8 9 C-7.875 7.25 -7.875 7.25 -7 5 C-4 2.8125 -4 2.8125 -1 1 C-0.67 0.67 -0.34 0.34 0 0 Z " fill="#D24648" transform="translate(157,165)"/>
<path d="M0 0 C0.99 0.33 1.98 0.66 3 1 C3.33 2.65 3.66 4.3 4 6 C1.36 5.67 -1.28 5.34 -4 5 C-3 2 -3 2 0 0 Z " fill="#E57166" transform="translate(100,163)"/>
<path d="M0 0 C2.76223278 2.76223278 2.57856291 5.20706617 3 9 C-0.79588866 8.45773019 -2.47211993 6.79872437 -5 4 C-4.0409375 3.8453125 -4.0409375 3.8453125 -3.0625 3.6875 C-2.381875 3.460625 -1.70125 3.23375 -1 3 C-0.67 2.01 -0.34 1.02 0 0 Z " fill="#E36F65" transform="translate(81,152)"/>
<path d="M0 0 C0.33 0 0.66 0 1 0 C1.66 3.96 2.32 7.92 3 12 C1.02 12 -0.96 12 -3 12 C-3 10.35 -3 8.7 -3 7 C-2.01 7 -1.02 7 0 7 C0 4.69 0 2.38 0 0 Z " fill="#EE9076" transform="translate(146,93)"/>
<path d="M0 0 C2.4375 0.75 2.4375 0.75 4.4375 2.75 C0.92973216 4.35355101 -1.70604879 4.97036864 -5.5625 4.75 C-5.5625 3.76 -5.5625 2.77 -5.5625 1.75 C-2.5625 -0.25 -2.5625 -0.25 0 0 Z " fill="#F79077" transform="translate(109.5625,78.25)"/>
<path d="M0 0 C2.0625 0.4375 2.0625 0.4375 4 1 C4 2.65 4 4.3 4 6 C3.01 6 2.02 6 1 6 C1.33 5.67 1.66 5.34 2 5 C1.34 4.67 0.68 4.34 0 4 C-0.33 4.99 -0.66 5.98 -1 7 C-1.66 6.67 -2.32 6.34 -3 6 C-1.125 1.125 -1.125 1.125 0 0 Z " fill="#EE3B3E" transform="translate(164,161)"/>
<path d="M0 0 C1.65 0.33 3.3 0.66 5 1 C4.01 1.495 4.01 1.495 3 2 C2.34786708 4.02463255 2.34786708 4.02463255 2 6 C1.34 6 0.68 6 0 6 C0 5.34 0 4.68 0 4 C-0.99 4.33 -1.98 4.66 -3 5 C-3.99 4.67 -4.98 4.34 -6 4 C-6.33 3.01 -6.66 2.02 -7 1 C-5.68 1 -4.36 1 -3 1 C-3 1.66 -3 2.32 -3 3 C-2.01 2.67 -1.02 2.34 0 2 C0 1.34 0 0.68 0 0 Z " fill="#E8A685" transform="translate(101,144)"/>
<path d="M0 0 C0.99 0 1.98 0 3 0 C3.33 3.3 3.66 6.6 4 10 C3.01 10 2.02 10 1 10 C-0.60725635 6.78548731 -0.05748185 3.56387464 0 0 Z " fill="#303333" transform="translate(186,64)"/>
<path d="M0 0 C2.38564077 0.57584432 4.66682784 1.22227595 7 2 C7.33 2.99 7.66 3.98 8 5 C7.01 5.66 6.02 6.32 5 7 C4.01 6.67 3.02 6.34 2 6 C2.66 5.67 3.32 5.34 4 5 C1.525 4.01 1.525 4.01 -1 3 C-0.67 2.01 -0.34 1.02 0 0 Z " fill="#4C3433" transform="translate(161,32)"/>
<path d="M0 0 C3.63 0 7.26 0 11 0 C10.67 0.66 10.34 1.32 10 2 C7.35139573 2.59355614 4.70802678 2.74209269 2 3 C4.97 3.495 4.97 3.495 8 4 C8 4.33 8 4.66 8 5 C3.545 5.495 3.545 5.495 -1 6 C-0.67 5.01 -0.34 4.02 0 3 C-0.66 2.67 -1.32 2.34 -2 2 C-1.34 2 -0.68 2 0 2 C0 1.34 0 0.68 0 0 Z " fill="#563238" transform="translate(74,33)"/>
<path d="M0 0 C0.33 1.65 0.66 3.3 1 5 C-2 6 -2 6 -4.125 5.25 C-6 4 -6 4 -7 1 C-4.50935112 0.31292445 -2.62113708 0 0 0 Z " fill="#323531" transform="translate(102,19)"/>
<path d="M0 0 C0.99 0 1.98 0 3 0 C3.103125 0.639375 3.20625 1.27875 3.3125 1.9375 C3.539375 2.618125 3.76625 3.29875 4 4 C4.99 4.33 5.98 4.66 7 5 C6.06027344 5.18175781 6.06027344 5.18175781 5.1015625 5.3671875 C4.28429687 5.53476563 3.46703125 5.70234375 2.625 5.875 C1.40683594 6.11863281 1.40683594 6.11863281 0.1640625 6.3671875 C-2.18673923 6.86658932 -2.18673923 6.86658932 -4 9 C-4 7.68 -4 6.36 -4 5 C-2.02 4.01 -0.04 3.02 2 2 C1.34 2 0.68 2 0 2 C0 1.34 0 0.68 0 0 Z " fill="#E19177" transform="translate(88,143)"/>
<path d="M0 0 C3 1 3 1 3.984375 2.7421875 C4.23703125 3.44601563 4.4896875 4.14984375 4.75 4.875 C5.01296875 5.57367188 5.2759375 6.27234375 5.546875 6.9921875 C6 9 6 9 5 12 C2.03162219 7.97832683 0.47610659 4.99911924 0 0 Z " fill="#28557F" transform="translate(82,121)"/>
<path d="M0 0 C2.31 0.66 4.62 1.32 7 2 C7.33 4.31 7.66 6.62 8 9 C7.67 8.34 7.34 7.68 7 7 C6.34 7 5.68 7 5 7 C0 1.4047619 0 1.4047619 0 0 Z " fill="#DB927D" transform="translate(132,89)"/>
<path d="M0 0 C-0.33 0.99 -0.66 1.98 -1 3 C-0.34 3.66 0.32 4.32 1 5 C0.67 5.66 0.34 6.32 0 7 C-2.97 6.505 -2.97 6.505 -6 6 C-6 3 -6 3 -5 1 C-2 0 -2 0 0 0 Z " fill="#F6826B" transform="translate(143,82)"/>
<path d="M0 0 C1.98 0 3.96 0 6 0 C5.67 2.31 5.34 4.62 5 7 C3.68 7.33 2.36 7.66 1 8 C1.33 5.69 1.66 3.38 2 1 C1.34 0.67 0.68 0.34 0 0 Z " fill="#F1685E" transform="translate(106,63)"/>
<path d="M0 0 C0.99 0.33 1.98 0.66 3 1 C2.34 1 1.68 1 1 1 C1 1.99 1 2.98 1 4 C1.66 4 2.32 4 3 4 C3 4.66 3 5.32 3 6 C3.66 6 4.32 6 5 6 C5 6.66 5 7.32 5 8 C4.34 8 3.68 8 3 8 C3 8.66 3 9.32 3 10 C2.01 9.67 1.02 9.34 0 9 C0.66 8.67 1.32 8.34 2 8 C2 7.34 2 6.68 2 6 C1.01 6 0.02 6 -1 6 C-1.042721 4.33388095 -1.04063832 2.66617115 -1 1 C-0.67 0.67 -0.34 0.34 0 0 Z " fill="#2D342F" transform="translate(151,187)"/>
<path d="M0 0 C0 0.99 0 1.98 0 3 C-6.75 4.125 -6.75 4.125 -9 3 C-6.38997624 -0.48003168 -4.1689578 -0.27793052 0 0 Z " fill="#F03A3E" transform="translate(174,156)"/>
<path d="M0 0 C0.33 0.99 0.66 1.98 1 3 C1.66 2.67 2.32 2.34 3 2 C2.01 5.3 1.02 8.6 0 12 C-0.99 11.01 -1.98 10.02 -3 9 C-2.66666667 2.66666667 -2.66666667 2.66666667 0 0 Z " fill="#EA9675" transform="translate(80,126)"/>
<path d="M0 0 C0.66 1.32 1.32 2.64 2 4 C1.01 4.33 0.02 4.66 -1 5 C-1 6.32 -1 7.64 -1 9 C-1.99 9 -2.98 9 -4 9 C-4.8125 7.3125 -4.8125 7.3125 -5 5 C-2.5625 2.25 -2.5625 2.25 0 0 Z " fill="#478EBF" transform="translate(137,124)"/>
<path d="M0 0 C-0.33 2.31 -0.66 4.62 -1 7 C-2.32 6.34 -3.64 5.68 -5 5 C-5 4.34 -5 3.68 -5 3 C-4.34 3 -3.68 3 -3 3 C-3 2.34 -3 1.68 -3 1 C-3.99 1.33 -4.98 1.66 -6 2 C-6.33 1.34 -6.66 0.68 -7 0 C-4.3333581 -1.33332095 -2.83319697 -0.67102033 0 0 Z " fill="#F0303A" transform="translate(32,121)"/>
<path d="M0 0 C0 1.65 0 3.3 0 5 C-3 6 -3 6 -6.1875 4.5625 C-7.115625 4.046875 -8.04375 3.53125 -9 3 C-9 2.67 -9 2.34 -9 2 C-3.375 0 -3.375 0 0 0 Z " fill="#F09477" transform="translate(152,120)"/>
<path d="M0 0 C0 0.99 0 1.98 0 3 C-0.99 3 -1.98 3 -3 3 C-2.67 3.99 -2.34 4.98 -2 6 C-3.32 6.33 -4.64 6.66 -6 7 C-6 8.65 -6 10.3 -6 12 C-6.33 12 -6.66 12 -7 12 C-7.32469403 7.34605219 -6.79790518 4.76641082 -4 1 C-2 0 -2 0 0 0 Z " fill="#543F39" transform="translate(90,148)"/>
<path d="M0 0 C0 1.32 0 2.64 0 4 C-1.65 4.66 -3.3 5.32 -5 6 C-6 3 -6 3 -6 0 C-3 -1 -3 -1 0 0 Z " fill="#94CAED" transform="translate(105,96)"/>
<path d="M0 0 C0.66 1.32 1.32 2.64 2 4 C2.66 3.34 3.32 2.68 4 2 C4 4.31 4 6.62 4 9 C2.35 9 0.7 9 -1 9 C-0.67 6.03 -0.34 3.06 0 0 Z " fill="#583439" transform="translate(132,200)"/>
<path d="M0 0 C0.66 0 1.32 0 2 0 C2.36256858 1.4562672 2.71479793 2.91511185 3.0625 4.375 C3.35833984 5.59316406 3.35833984 5.59316406 3.66015625 6.8359375 C4 9 4 9 3 11 C2.67 9.35 2.34 7.7 2 6 C0.35 5.67 -1.3 5.34 -3 5 C-2.67 4.34 -2.34 3.68 -2 3 C-1.34 3 -0.68 3 0 3 C0 2.01 0 1.02 0 0 Z " fill="#F8A07E" transform="translate(142,130)"/>
<path d="M0 0 C0.33 1.32 0.66 2.64 1 4 C1.66 4 2.32 4 3 4 C3 5.65 3 7.3 3 9 C2.34 9 1.68 9 1 9 C0.67 8.34 0.34 7.68 0 7 C-0.99 7.99 -1.98 8.98 -3 10 C-2.49287967 6.28111761 -1.88391785 3.26545761 0 0 Z " fill="#4EA3D2" transform="translate(103,106)"/>
<path d="M0 0 C1.51953125 1.20703125 1.51953125 1.20703125 3 3 C3.07421875 5.26171875 3.07421875 5.26171875 2.6875 7.6875 C2.50767578 8.89986328 2.50767578 8.89986328 2.32421875 10.13671875 C2.21722656 10.75160156 2.11023438 11.36648437 2 12 C0.4375 10.5 0.4375 10.5 -1 8 C-0.96823234 5.22562457 -0.50364148 2.74713533 0 0 Z " fill="#F8846B" transform="translate(144,88)"/>
<path d="M0 0 C2 2 2 2 2 5 C-0.38564077 4.42415568 -2.66682784 3.77772405 -5 3 C-6.66621616 2.96125079 -8.33394172 2.9549714 -10 3 C-6.73602552 1.1169378 -3.75561867 0.32657554 0 0 Z " fill="#0D568A" transform="translate(107,93)"/>
<path d="M0 0 C0.99 0 1.98 0 3 0 C3 0.66 3 1.32 3 2 C3.99 2.33 4.98 2.66 6 3 C6 3.66 6 4.32 6 5 C9.465 4.505 9.465 4.505 13 4 C13 4.66 13 5.32 13 6 C5.78287462 6.48929664 5.78287462 6.48929664 2 4.125 C0 2 0 2 0 0 Z " fill="#CA3138" transform="translate(194,86)"/>
<path d="M0 0 C0.99 0.33 1.98 0.66 3 1 C2.01 3.97 1.02 6.94 0 10 C-0.99 9.67 -1.98 9.34 -3 9 C-3 7.02 -3 5.04 -3 3 C-2.01 4.485 -2.01 4.485 -1 6 C-0.67 4.02 -0.34 2.04 0 0 Z " fill="#F89178" transform="translate(83,88)"/>
<path d="M0 0 C0 3.10551666 -0.5393715 4.35261084 -2 7 C-0.35 7 1.3 7 3 7 C3 7.33 3 7.66 3 8 C0.03 7.67 -2.94 7.34 -6 7 C-5.34 6.34 -4.68 5.68 -4 5 C-4.66 4.34 -5.32 3.68 -6 3 C-4.02 2.01 -2.04 1.02 0 0 Z " fill="#E2A486" transform="translate(129,141)"/>
<path d="M0 0 C3.26954202 0.56371414 4.82575883 1.49962266 7 4 C4.69 4.33 2.38 4.66 0 5 C-0.33 4.01 -0.66 3.02 -1 2 C-0.67 1.34 -0.34 0.68 0 0 Z " fill="#EAAA8E" transform="translate(89,138)"/>
<path d="M0 0 C0 2.64054495 -0.35107784 4.48542662 -1 7 C-1 7.66 -1 8.32 -1 9 C-3.97 8.505 -3.97 8.505 -7 8 C-5.08864614 4.46399535 -3.37357234 2.21027154 0 0 Z " fill="#B9A29D" transform="translate(137,133)"/>
<path d="M0 0 C1 2 1 2 0.0625 5.125 C-0.288125 6.07375 -0.63875 7.0225 -1 8 C-1.66 8 -2.32 8 -3 8 C-3.33 8.99 -3.66 9.98 -4 11 C-4 10.01 -4 9.02 -4 8 C-4.66 7.67 -5.32 7.34 -6 7 C-4.02 4.69 -2.04 2.38 0 0 Z " fill="#234C75" transform="translate(91,91)"/>
<path d="M0 0 C1.32 0 2.64 0 4 0 C3.625 2.4375 3.625 2.4375 3 5 C-0.21451269 6.60725635 -3.43612536 6.05748185 -7 6 C-7 5.67 -7 5.34 -7 5 C-3.535 4.505 -3.535 4.505 0 4 C0 3.67 0 3.34 0 3 C0 2.01 0 1.02 0 0 Z " fill="#F5303A" transform="translate(65,176)"/>
<path d="M0 0 C4.92307692 4.18461538 4.92307692 4.18461538 5.3125 8.3125 C5.209375 9.199375 5.10625 10.08625 5 11 C4.67 11 4.34 11 4 11 C4 9.35 4 7.7 4 6 C3.34 6 2.68 6 2 6 C1.67 6.66 1.34 7.32 1 8 C1 6.35 1 4.7 1 3 C0.34 2.67 -0.32 2.34 -1 2 C-0.67 1.34 -0.34 0.68 0 0 Z " fill="#CF4641" transform="translate(67,165)"/>
<path d="M0 0 C0.763125 0.66 1.52625 1.32 2.3125 2 C4.84277939 4.29850538 4.84277939 4.29850538 8 4 C8.33 4.66 8.66 5.32 9 6 C7.3125 6.6875 7.3125 6.6875 5 7 C2.25 5.8125 2.25 5.8125 0 4 C0 2.68 0 1.36 0 0 Z " fill="#20A3DA" transform="translate(115,126)"/>
<path d="M0 0 C0.66 0.33 1.32 0.66 2 1 C2 2.32 2 3.64 2 5 C1.34 5 0.68 5 0 5 C0 5.66 0 6.32 0 7 C-1.32 7.33 -2.64 7.66 -4 8 C-3.40072174 4.64404172 -2.15377564 2.62198774 0 0 Z " fill="#275B8B" transform="translate(137,114)"/>
<path d="M0 0 C1.89213369 2.38573379 3.02391783 4.07175348 4 7 C3.01 8.485 3.01 8.485 2 10 C2 9.34 2 8.68 2 8 C1.34 8 0.68 8 0 8 C-1.125 2.25 -1.125 2.25 0 0 Z " fill="#D55D57" transform="translate(60,96)"/>
<path d="M0 0 C1.98 0 3.96 0 6 0 C4.87548273 2.9719385 3.77706209 5.33440687 2 8 C1.34 5.36 0.68 2.72 0 0 Z " fill="#E97968" transform="translate(145,88)"/>
<path d="M0 0 C0 0.99 0 1.98 0 3 C-3.63 3 -7.26 3 -11 3 C-10.67 2.34 -10.34 1.68 -10 1 C-6.56187949 0.23597322 -3.53471921 0 0 0 Z " fill="#EB967E" transform="translate(120,80)"/>
<path d="M0 0 C0 0.33 0 0.66 0 1 C-1.65 1 -3.3 1 -5 1 C-5 2.65 -5 4.3 -5 6 C-5.99 5.67 -6.98 5.34 -8 5 C-8 4.01 -8 3.02 -8 2 C-8.66 1.67 -9.32 1.34 -10 1 C-6.78548731 -0.60725635 -3.56387464 -0.05748185 0 0 Z " fill="#534543" transform="translate(133,149)"/>
<path d="M0 0 C1.98 0 3.96 0 6 0 C4.70700306 2.88437779 3.34058637 4.87219421 1 7 C0.67 4.69 0.34 2.38 0 0 Z " fill="#E06A5D" transform="translate(153,144)"/>
<path d="M0 0 C1.32 0 2.64 0 4 0 C4 0.99 4 1.98 4 3 C6.31 3 8.62 3 11 3 C11 3.33 11 3.66 11 4 C9.37536158 4.05395478 7.75021459 4.09277195 6.125 4.125 C5.22007813 4.14820313 4.31515625 4.17140625 3.3828125 4.1953125 C1 4 1 4 -1 2 C-0.67 1.34 -0.34 0.68 0 0 Z " fill="#098EC9" transform="translate(105,139)"/>
<path d="M0 0 C0.33 0.66 0.66 1.32 1 2 C2.64363134 2.72159424 4.31050386 3.39351421 6 4 C6 4.66 6 5.32 6 6 C3.625 6.125 3.625 6.125 1 6 C0.34 5.34 -0.32 4.68 -1 4 C-0.625 1.875 -0.625 1.875 0 0 Z " fill="#F5A985" transform="translate(82,130)"/>
<path d="M0 0 C2.97 0.33 5.94 0.66 9 1 C8.34 1.66 7.68 2.32 7 3 C5.68 3 4.36 3 3 3 C2.67 4.32 2.34 5.64 2 7 C1.34 4.69 0.68 2.38 0 0 Z " fill="#91CFEF" transform="translate(106,119)"/>
<path d="M0 0 C0.99 0.495 0.99 0.495 2 1 C2 1.66 2 2.32 2 3 C5.465 2.505 5.465 2.505 9 2 C9 2.99 9 3.98 9 5 C7.35 4.67 5.7 4.34 4 4 C3.67 4.66 3.34 5.32 3 6 C1.5 4.6875 1.5 4.6875 0 3 C0 2.01 0 1.02 0 0 Z " fill="#377DAE" transform="translate(92,107)"/>
<path d="M0 0 C2.97 0.33 5.94 0.66 9 1 C8.67 2.32 8.34 3.64 8 5 C6.35 5 4.7 5 3 5 C3.33 4.01 3.66 3.02 4 2 C2.68 2 1.36 2 0 2 C0 1.34 0 0.68 0 0 Z " fill="#E47769" transform="translate(152,107)"/>
<path d="M0 0 C3.96 0 7.92 0 12 0 C11.34 1.32 10.68 2.64 10 4 C10 3.01 10 2.02 10 1 C9.278125 1.350625 8.55625 1.70125 7.8125 2.0625 C4.6877295 3.10409017 3.11838004 2.89096572 0 2 C0 1.34 0 0.68 0 0 Z " fill="#293430" transform="translate(192,92)"/>
<path d="M0 0 C-1.98 1.32 -3.96 2.64 -6 4 C-6.66 2.35 -7.32 0.7 -8 -1 C-4.59745511 -2.2151946 -3.06748874 -1.86240388 0 0 Z " fill="#085F9B" transform="translate(115,92)"/>
<path d="M0 0 C2.64 0 5.28 0 8 0 C7.34 0.66 6.68 1.32 6 2 C6.66 2.66 7.32 3.32 8 4 C2.25 4.125 2.25 4.125 0 3 C0 2.01 0 1.02 0 0 Z " fill="#F98C74" transform="translate(128,83)"/>
<path d="M0 0 C2.31 1.98 4.62 3.96 7 6 C6.01 6.66 5.02 7.32 4 8 C1 6 1 6 0.3125 2.875 C0.209375 1.92625 0.10625 0.9775 0 0 Z " fill="#DC5752" transform="translate(148,72)"/>
<path d="M0 0 C0.66 0 1.32 0 2 0 C2 1.65 2 3.3 2 5 C-1.13349732 6.04449911 -1.98968256 5.93423645 -5 5 C-4.67 4.01 -4.34 3.02 -4 2 C-2.68 2 -1.36 2 0 2 C0 1.34 0 0.68 0 0 Z " fill="#F5625B" transform="translate(80,72)"/>
<path d="M0 0 C2 3 2 3 2 6 C1.01 6.495 1.01 6.495 0 7 C-0.33 7.66 -0.66 8.32 -1 9 C-1.66 8.67 -2.32 8.34 -3 8 C-2.45276317 4.62537285 -1.9451 2.91765 0 0 Z " fill="#633334" transform="translate(33,58)"/>
<path d="M0 0 C0.66 1.32 1.32 2.64 2 4 C-1.375 4.625 -1.375 4.625 -5 5 C-5.66 4.34 -6.32 3.68 -7 3 C-4.64046906 0.64046906 -3.22104383 0.50858587 0 0 Z " fill="#3E3238" transform="translate(167,39)"/>
<path d="M0 0 C0.99 0.33 1.98 0.66 3 1 C3 1.66 3 2.32 3 3 C2.01 3.495 2.01 3.495 1 4 C1 4.66 1 5.32 1 6 C-0.32 5.67 -1.64 5.34 -3 5 C-2.625 3.0625 -2.625 3.0625 -2 1 C-1.34 0.67 -0.68 0.34 0 0 Z " fill="#D42E34" transform="translate(67,192)"/>
<path d="M0 0 C0.33 0.66 0.66 1.32 1 2 C2.64363134 2.72159424 4.31050386 3.39351421 6 4 C6 4.66 6 5.32 6 6 C3.33333333 5.33333333 0.66666667 4.66666667 -2 4 C-2 3.01 -2 2.02 -2 1 C-1.34 0.67 -0.68 0.34 0 0 Z " fill="#1C5387" transform="translate(92,110)"/>
<path d="M0 0 C0 0.66 0 1.32 0 2 C-0.66 2 -1.32 2 -2 2 C-2 2.66 -2 3.32 -2 4 C-2.99 4.33 -3.98 4.66 -5 5 C-5 4.01 -5 3.02 -5 2 C-6.32 1.67 -7.64 1.34 -9 1 C-5.8035914 -0.06546953 -3.34252724 -0.07427838 0 0 Z " fill="#CCD2DB" transform="translate(110,83)"/>
<path d="M0 0 C2.31 0 4.62 0 7 0 C2.5 4 2.5 4 -2 4 C-1.67 3.34 -1.34 2.68 -1 2 C-0.34 2.33 0.32 2.66 1 3 C0.67 2.01 0.34 1.02 0 0 Z " fill="#F13039" transform="translate(69,192)"/>
<path d="M0 0 C2 2 2 2 3 4 C2.360625 4.12375 1.72125 4.2475 1.0625 4.375 C0.0415625 4.684375 0.0415625 4.684375 -1 5 C-1.33 5.66 -1.66 6.32 -2 7 C-2.99 7 -3.98 7 -5 7 C-3.70700306 4.11562221 -2.34058637 2.12780579 0 0 Z " fill="#C84344" transform="translate(165,157)"/>
<path d="M0 0 C5.28497409 -0.44041451 5.28497409 -0.44041451 8 0 C10.5 2.5 10.5 2.5 12 5 C10.35 4.67 8.7 4.34 7 4 C7 3.01 7 2.02 7 1 C4.36 1.33 1.72 1.66 -1 2 C-0.67 1.34 -0.34 0.68 0 0 Z " fill="#B5373B" transform="translate(167,155)"/>
<path d="M0 0 C0.99 0.33 1.98 0.66 3 1 C1.25 4.875 1.25 4.875 -1 6 C-1.99 6 -2.98 6 -4 6 C-1.125 1.125 -1.125 1.125 0 0 Z " fill="#EBA78E" transform="translate(141,129)"/>
<path d="M0 0 C0.66 0.33 1.32 0.66 2 1 C1 5 1 5 0 9 C-0.99 8.67 -1.98 8.34 -3 8 C-2.01 5.36 -1.02 2.72 0 0 Z " fill="#234670" transform="translate(141,103)"/>
<path d="M0 0 C1.67542976 0.28604898 3.34385343 0.61781233 5 1 C4.67 2.32 4.34 3.64 4 5 C2.68 5 1.36 5 0 5 C-0.5625 3.0625 -0.5625 3.0625 -1 1 C-0.67 0.67 -0.34 0.34 0 0 Z " fill="#CCE8F7" transform="translate(130,96)"/>
<path d="M0 0 C2 1.8125 2 1.8125 4 4 C4 4.99 4 5.98 4 7 C2.125 7.625 2.125 7.625 0 8 C-0.66 7.34 -1.32 6.68 -2 6 C-1.01 6 -0.02 6 1 6 C0.67 4.02 0.34 2.04 0 0 Z " fill="#E07F6E" transform="translate(122,74)"/>
<path d="M0 0 C0.33 0 0.66 0 1 0 C3 7.625 3 7.625 3 11 C1.68 11.33 0.36 11.66 -1 12 C-0.7525 11.2575 -0.7525 11.2575 -0.5 10.5 C0.20688818 6.96555911 0.06005155 3.60309299 0 0 Z " fill="#DE6D65" transform="translate(86,68)"/>
<path d="M0 0 C1.32 0.99 2.64 1.98 4 3 C3.67 4.32 3.34 5.64 3 7 C1.68 7 0.36 7 -1 7 C-1 6.01 -1 5.02 -1 4 C-0.34 4 0.32 4 1 4 C0.67 2.68 0.34 1.36 0 0 Z " fill="#4C3438" transform="translate(158,64)"/>
<path d="M0 0 C0.66 0 1.32 0 2 0 C2.33 0.66 2.66 1.32 3 2 C3.99 1.67 4.98 1.34 6 1 C5.67 2.65 5.34 4.3 5 6 C4.34 6 3.68 6 3 6 C3 5.34 3 4.68 3 4 C2.01 3.67 1.02 3.34 0 3 C0 2.01 0 1.02 0 0 Z " fill="#F5383E" transform="translate(120,186)"/>
<path d="M0 0 C1.65 0.33 3.3 0.66 5 1 C4.01 1.495 4.01 1.495 3 2 C3 2.66 3 3.32 3 4 C1.02 4.33 -0.96 4.66 -3 5 C-2.01 3.35 -1.02 1.7 0 0 Z " fill="#F6AF8C" transform="translate(130,141)"/>
<path d="M0 0 C1.5625 1.75 1.5625 1.75 3 4 C2.6875 6.25 2.6875 6.25 2 8 C1.01 7.34 0.02 6.68 -1 6 C-1.25 3.4375 -1.25 3.4375 -1 1 C-0.67 0.67 -0.34 0.34 0 0 Z " fill="#B9E5F6" transform="translate(118,123)"/>
<path d="M0 0 C0.66 0 1.32 0 2 0 C1.74438677 2.3431213 1.40729228 4.67843403 1 7 C0.01 7.495 0.01 7.495 -1 8 C-1.625 5.6875 -1.625 5.6875 -2 3 C-1.34 2.01 -0.68 1.02 0 0 Z " fill="#99D0F6" transform="translate(97,125)"/>
<path d="M0 0 C0.66 0 1.32 0 2 0 C1.67 3.3 1.34 6.6 1 10 C1.66 10 2.32 10 3 10 C3 10.66 3 11.32 3 12 C1.68 12 0.36 12 -1 12 C-0.67 8.04 -0.34 4.08 0 0 Z " fill="#F6A286" transform="translate(145,110)"/>
<path d="M0 0 C2.97 0.33 5.94 0.66 9 1 C9 1.33 9 1.66 9 2 C3.375 4 3.375 4 0 4 C0 2.68 0 1.36 0 0 Z " fill="#E3705F" transform="translate(63,103)"/>
<path d="M0 0 C0.99 0.33 1.98 0.66 3 1 C3.625 3.375 3.625 3.375 4 6 C3.34 6.66 2.68 7.32 2 8 C-0.1519437 4.77208445 -0.20086443 3.71599191 0 0 Z " fill="#204A7B" transform="translate(136,95)"/>
<path d="M0 0 C1.65 0.99 3.3 1.98 5 3 C4.67 3.66 4.34 4.32 4 5 C3.34 5 2.68 5 2 5 C2 5.66 2 6.32 2 7 C1.34 7 0.68 7 0 7 C0 4.69 0 2.38 0 0 Z " fill="#E9F3F5" transform="translate(127,86)"/>
<path d="M0 0 C0.99 0.33 1.98 0.66 3 1 C2.67 1.99 2.34 2.98 2 4 C0.35 4.33 -1.3 4.66 -3 5 C-2.01 3.35 -1.02 1.7 0 0 Z M-6 6 C-5.01 6.495 -5.01 6.495 -4 7 C-4.66 7.66 -5.32 8.32 -6 9 C-6 8.01 -6 7.02 -6 6 Z " fill="#F27061" transform="translate(84,75)"/>
<path d="M0 0 C0 0.66 0 1.32 0 2 C-1.98 2.99 -3.96 3.98 -6 5 C-6 4.01 -6 3.02 -6 2 C-6.66 1.67 -7.32 1.34 -8 1 C-5.07175348 0.02391783 -3.04386724 -0.08226668 0 0 Z " fill="#D95050" transform="translate(130,61)"/>
<path d="M0 0 C1.32 0.66 2.64 1.32 4 2 C4 3.65 4 5.3 4 7 C2.35 5.35 0.7 3.7 -1 2 C-0.67 1.34 -0.34 0.68 0 0 Z " fill="#363534" transform="translate(131,26)"/>
<path d="M0 0 C1.0625 1.875 1.0625 1.875 2 4 C1.67 4.66 1.34 5.32 1 6 C-1.475 5.01 -1.475 5.01 -4 4 C-3.34 3.67 -2.68 3.34 -2 3 C-2 2.34 -2 1.68 -2 1 C-1.34 0.67 -0.68 0.34 0 0 Z " fill="#306D95" transform="translate(100,138)"/>
<path d="M0 0 C0.99 0 1.98 0 3 0 C2.67 2.64 2.34 5.28 2 8 C1.34 7.67 0.68 7.34 0 7 C0 4.69 0 2.38 0 0 Z " fill="#2E3631" transform="translate(21,124)"/>
<path d="M0 0 C0.8125 1.6875 0.8125 1.6875 1 4 C-1.4375 6.75 -1.4375 6.75 -4 9 C-4.8125 7.3125 -4.8125 7.3125 -5 5 C-2.5625 2.25 -2.5625 2.25 0 0 Z " fill="#51A8D6" transform="translate(136,112)"/>
<path d="M0 0 C0.99 0 1.98 0 3 0 C3 1.98 3 3.96 3 6 C2.01 6 1.02 6 0 6 C0 4.02 0 2.04 0 0 Z " fill="#5EB7E9" transform="translate(83,112)"/>
<path d="M0 0 C1.98 0.66 3.96 1.32 6 2 C3 4 3 4 0.3125 3.625 C-0.450625 3.41875 -1.21375 3.2125 -2 3 C-1.34 2.01 -0.68 1.02 0 0 Z " fill="#F3947A" transform="translate(98,81)"/>
<path d="M0 0 C-0.66 2.31 -1.32 4.62 -2 7 C-2.99 7 -3.98 7 -5 7 C-5.1875 4.625 -5.1875 4.625 -5 2 C-2 0 -2 0 0 0 Z " fill="#DD5750" transform="translate(88,65)"/>
<path d="M0 0 C0.33 0 0.66 0 1 0 C2.125 6.75 2.125 6.75 1 9 C0.34 9 -0.32 9 -1 9 C-1.09765625 2.84765625 -1.09765625 2.84765625 -1 1 C-0.67 0.67 -0.34 0.34 0 0 Z " fill="#F32D32" transform="translate(178,162)"/>
<path d="M0 0 C2.33944736 0.28730055 4.6739143 0.61936779 7 1 C7 1.66 7 2.32 7 3 C4.125 3.125 4.125 3.125 1 3 C0.34 2.34 -0.32 1.68 -1 1 C-0.67 0.67 -0.34 0.34 0 0 Z " fill="#0E5988" transform="translate(102,142)"/>
<path d="M0 0 C0.99 0 1.98 0 3 0 C3 0.66 3 1.32 3 2 C3.66 2 4.32 2 5 2 C5 2.66 5 3.32 5 4 C1.7 3.67 -1.6 3.34 -5 3 C-5 2.67 -5 2.34 -5 2 C-3.35 2 -1.7 2 0 2 C0 1.34 0 0.68 0 0 Z " fill="#E7766A" transform="translate(157,122)"/>
<path d="M0 0 C0.45375 0.474375 0.9075 0.94875 1.375 1.4375 C2.93258204 3.09027808 2.93258204 3.09027808 5 4 C4.67 4.66 4.34 5.32 4 6 C3.34 6 2.68 6 2 6 C2 5.34 2 4.68 2 4 C0.35 4 -1.3 4 -3 4 C-2.67 3.01 -2.34 2.02 -2 1 C-1.34 0.67 -0.68 0.34 0 0 Z " fill="#54A0D1" transform="translate(89,102)"/>
<path d="M0 0 C0.99 0 1.98 0 3 0 C3 0.66 3 1.32 3 2 C2.34 2 1.68 2 1 2 C1 2.66 1 3.32 1 4 C1.99 4.33 2.98 4.66 4 5 C3.34 5.66 2.68 6.32 2 7 C0.4375 5.75 0.4375 5.75 -1 4 C-0.6875 1.8125 -0.6875 1.8125 0 0 Z " fill="#C7E4F8" transform="translate(92,97)"/>
<path d="M0 0 C0.33 0.66 0.66 1.32 1 2 C0.34 2 -0.32 2 -1 2 C-1 2.99 -1 3.98 -1 5 C-3.64 4.67 -6.28 4.34 -9 4 C-9 3.67 -9 3.34 -9 3 C-7.88625 2.690625 -6.7725 2.38125 -5.625 2.0625 C-2.2054845 1.17673517 -2.2054845 1.17673517 0 0 Z " fill="#5F3231" transform="translate(68,180)"/>
<path d="M0 0 C0.66 0.33 1.32 0.66 2 1 C1.74438677 3.3431213 1.40729228 5.67843403 1 8 C0.01 8.495 0.01 8.495 -1 9 C-0.67 6.03 -0.34 3.06 0 0 Z " fill="#B83339" transform="translate(190,149)"/>
<path d="M0 0 C1.45823212 -0.0270043 2.91660675 -0.04639787 4.375 -0.0625 C5.18710938 -0.07410156 5.99921875 -0.08570312 6.8359375 -0.09765625 C9 0 9 0 11 1 C10.67 1.66 10.34 2.32 10 3 C6.7 2.34 3.4 1.68 0 1 C0 0.67 0 0.34 0 0 Z " fill="#594037" transform="translate(151,125)"/>
<path d="M0 0 C1.98 0 3.96 0 6 0 C6.33 1.65 6.66 3.3 7 5 C5 5 5 5 3.5 3.625 C3.005 3.08875 2.51 2.5525 2 2 C1.34 1.34 0.68 0.68 0 0 Z " fill="#265C8E" transform="translate(85,106)"/>
<path d="M0 0 C0.33 0 0.66 0 1 0 C0.67 2.64 0.34 5.28 0 8 C-0.99 8 -1.98 8 -3 8 C-2.45276317 4.62537285 -1.9451 2.91765 0 0 Z " fill="#3E3436" transform="translate(21,88)"/>
<path d="M0 0 C2.375 -0.125 2.375 -0.125 5 0 C5.66 0.66 6.32 1.32 7 2 C6.67 2.99 6.34 3.98 6 5 C4.68 4.01 3.36 3.02 2 2 C1.01 2.495 1.01 2.495 0 3 C0 2.01 0 1.02 0 0 Z " fill="#603837" transform="translate(141,67)"/>
<path d="M0 0 C0.33 1.32 0.66 2.64 1 4 C0.01 4.495 0.01 4.495 -1 5 C-3.125 4.0625 -3.125 4.0625 -5 3 C-2.25 0 -2.25 0 0 0 Z " fill="#493330" transform="translate(74,59)"/>
</svg>
